<svg version="1.1" id="Layer_1" xmlns="http://www.w3.org/2000/svg" xmlns:xlink="http://www.w3.org/1999/xlink" x="0px" y="0px"
	 width="100%" viewBox="0 0 677 677" enable-background="new 0 0 677 677" xml:space="preserve">
<path fill="#FEFEFE" opacity="1.000000" stroke="none" 
	d="
M1.000000,675.000000 
	C1.000000,450.403290 1.000000,225.806549 1.000000,1.000000 
	C225.026810,1.000000 449.053680,1.000000 673.541748,1.468656 
	C674.002808,223.837097 674.002625,445.736877 674.002136,667.636658 
	C674.002136,669.135986 674.386108,670.785950 673.880371,672.089966 
	C673.423279,673.268311 671.991272,674.068604 670.529419,675.025452 
	C447.046387,675.010254 224.023193,675.005127 1.000000,675.000000 
M78.995201,449.376221 
	C78.839302,449.130310 78.683411,448.884430 78.527496,448.638519 
	C78.298676,449.092072 78.069847,449.545624 77.342819,450.512482 
	C73.781502,460.407471 70.220184,470.302429 66.131088,480.706390 
	C66.392349,481.217224 66.653618,481.728058 67.583397,482.538849 
	C71.772911,482.135498 77.207573,484.743866 79.450356,477.970062 
	C79.920876,477.997223 80.391396,478.024414 81.602539,478.447784 
	C85.224174,478.637360 90.807716,477.438293 92.105934,479.272400 
	C96.287491,485.180176 101.168976,481.444153 106.429871,482.763702 
	C101.507050,470.308746 97.069550,458.892761 92.461845,447.545837 
	C91.177597,444.383331 82.561966,444.117737 80.035858,447.687561 
	C79.717796,448.411163 79.399727,449.134766 79.047371,449.955048 
	C79.047371,449.955048 79.136795,449.904785 78.995201,449.376221 
M459.637207,510.699402 
	C458.754547,511.766876 457.871887,512.834351 456.288330,514.067505 
	C454.125458,516.751465 451.693817,519.300659 453.416687,523.257996 
	C454.943695,526.765503 457.438751,528.463745 461.254517,527.711060 
	C465.351868,526.902710 468.188477,522.199890 467.872406,516.331116 
	C467.166412,514.428345 466.460449,512.525574 465.269257,510.160889 
	C463.590973,510.313629 461.912659,510.466370 459.637207,510.699402 
M264.721466,513.570740 
	C264.051361,514.366394 263.381256,515.162048 261.984283,516.086548 
	C258.811096,519.776123 259.048920,522.784180 263.416260,526.404785 
	C268.667542,528.820862 270.452118,528.272217 275.023682,522.851685 
	C278.375793,517.732788 277.794525,512.262695 272.893311,510.116241 
	C271.061768,510.152374 269.230194,510.188538 266.654694,510.130310 
	C266.103271,511.087128 265.551819,512.043945 264.721466,513.570740 
M412.808655,518.883362 
	C413.069702,519.328430 413.330780,519.773560 413.763855,520.972473 
	C414.652588,523.418518 415.541321,525.864624 416.453064,528.374084 
	C421.301056,524.934265 423.751312,513.653076 420.033325,509.558075 
	C419.256866,512.051270 418.785706,514.227417 417.860352,516.189331 
	C417.518982,516.913147 416.107330,517.132202 414.964844,517.042114 
	C414.790863,516.956177 414.616852,516.870178 414.379089,516.324280 
	C414.438965,515.982971 414.347839,515.687744 414.345398,514.757141 
	C413.106689,513.226685 411.867981,511.696167 410.629303,510.165680 
	C409.955780,510.862976 409.282257,511.560272 408.130402,512.783386 
	C407.719238,515.201355 407.308075,517.619324 406.602356,520.830505 
	C406.684418,522.209412 406.766449,523.588257 406.630280,525.367188 
	C407.518036,525.286316 408.405823,525.205444 409.669830,524.670105 
	C409.707214,524.091736 409.744629,523.513367 410.070129,522.507263 
	C410.072327,521.662598 410.074524,520.817932 410.314880,519.547424 
	C410.432617,519.216919 410.399811,518.902161 410.813232,517.972168 
	C411.496429,518.094177 412.179596,518.216187 412.808655,518.883362 
M283.705658,519.161133 
	C284.501617,518.828674 285.297607,518.496277 286.178009,518.856262 
	C286.421234,519.247925 286.664490,519.639526 286.933014,520.797852 
	C287.870056,523.336975 288.807098,525.876038 289.990997,529.084045 
	C295.029053,524.071045 294.317871,517.868774 295.820221,512.503845 
	C296.003510,511.849304 294.612976,510.754028 293.193695,508.841370 
	C292.273743,512.199768 291.881714,514.290405 291.050812,516.188904 
	C290.849457,516.648926 289.200470,516.475403 288.191040,515.879944 
	C286.805389,513.740906 285.419739,511.601807 284.034058,509.462708 
	C283.468933,509.679352 282.903809,509.895996 282.338715,510.112640 
	C281.977661,511.434021 281.616638,512.755432 280.899017,514.583252 
	C280.839417,515.401794 280.779816,516.220398 280.313568,517.636108 
	C280.275879,518.110291 280.238220,518.584473 279.914276,519.376587 
	C279.931122,519.921631 279.947998,520.466736 279.715088,521.729065 
	C279.777252,522.476135 279.839417,523.223145 279.622253,524.419800 
	C280.334686,525.069580 281.047119,525.719299 281.759583,526.369080 
	C282.184326,524.908813 282.609039,523.448486 283.275146,521.439331 
	C283.270660,520.850098 283.266174,520.260803 283.705658,519.161133 
M328.304230,515.130066 
	C325.841675,517.723816 324.771973,520.549683 326.537598,524.029419 
	C328.307709,527.518066 331.237793,528.294250 335.504364,527.911743 
	C337.663757,525.005920 340.810242,522.363770 341.678619,519.113098 
	C342.408905,516.379333 343.955994,511.686157 338.062042,510.121613 
	C333.373077,508.537567 331.155853,511.714600 328.304230,515.130066 
M536.335388,515.173950 
	C533.521606,518.130920 532.737610,521.445129 535.166748,524.911987 
	C537.134827,527.720764 539.825073,528.881287 543.874390,527.086365 
	C546.027649,526.336548 548.570068,525.935547 546.932373,522.508301 
	C546.689819,522.000732 547.455505,520.654724 548.105469,520.136292 
	C551.810974,517.180908 550.618713,515.117310 547.632690,512.940552 
	C544.129944,507.984985 541.907166,508.387207 536.335388,515.173950 
M309.216888,512.804504 
	C310.651001,518.362366 312.085144,523.920166 313.900055,530.953735 
	C314.932953,526.535828 315.636597,523.526306 316.856750,520.088928 
	C318.936981,517.183350 321.017212,514.277771 323.097443,511.372192 
	C322.928253,510.892395 322.759033,510.412628 322.589844,509.932861 
	C321.272491,510.365753 319.718903,510.495941 318.690277,511.298737 
	C316.916626,512.683044 315.469513,514.485596 313.306000,515.385986 
	C312.770721,514.283020 312.235443,513.180115 311.420776,511.644257 
	C310.723114,511.789032 310.025482,511.933777 309.216888,512.804504 
M496.180298,514.168030 
	C494.971313,512.639587 493.762299,511.111176 492.229553,509.173431 
	C488.133087,517.295959 487.734436,523.771729 491.246735,526.887329 
	C491.682953,523.662354 492.059967,520.874939 492.437012,518.087524 
	C493.225250,517.372498 494.013519,516.657410 494.801758,515.942383 
	C495.097412,517.348938 495.393066,518.755432 495.903290,520.908936 
	C496.854797,523.410156 497.806305,525.911438 498.830963,528.604980 
	C503.851410,523.606995 505.743103,512.915710 501.905792,509.927948 
	C501.259918,512.298584 500.620941,514.448547 500.096741,516.626038 
	C499.619995,518.606567 498.867981,519.315063 497.274658,516.745911 
	C496.920624,516.431396 496.566620,516.116821 496.209320,515.489929 
	C496.245758,515.267212 496.187592,515.072693 496.180298,514.168030 
M145.177261,517.298462 
	C144.953934,513.757141 144.666489,510.267456 139.284683,510.268158 
	C138.555130,515.769043 135.424774,520.900757 137.708664,526.349121 
	C138.280701,526.423035 138.852753,526.496948 139.424789,526.570801 
	C140.121887,523.495850 140.818970,520.420898 141.727615,516.412781 
	C142.968887,518.474976 143.695755,519.682556 144.762375,521.535889 
	C145.447250,523.805359 146.132141,526.074829 146.870941,528.523010 
	C152.184952,524.047363 154.241882,512.433777 150.090485,510.186188 
	C149.470901,512.652466 148.881073,515.028442 148.276230,517.400574 
	C147.599808,520.053467 146.420639,519.666321 145.177261,517.298462 
M348.193970,519.323914 
	C348.280945,518.404968 348.367950,517.485962 348.835266,516.258606 
	C348.904053,515.502441 348.972870,514.746216 349.281738,513.352478 
	C349.245697,512.907898 349.209625,512.463257 349.466522,511.585663 
	C348.740784,511.214325 348.015045,510.842987 347.289307,510.471649 
	C346.806183,511.993378 346.323059,513.515076 345.635895,515.546204 
	C345.677795,515.906006 345.719727,516.265869 345.264008,517.072998 
	C345.336823,519.257874 345.409637,521.442810 345.567444,524.163208 
	C345.790344,524.431091 346.013245,524.698975 346.557434,525.403748 
	C347.035431,525.920349 347.513397,526.436890 348.809418,527.294678 
	C351.244659,527.432922 353.679901,527.571167 356.506897,527.731689 
	C359.001160,521.307983 358.463654,512.186584 354.825989,510.824432 
	C353.995361,515.402344 354.908447,520.895020 348.633942,522.467285 
	C348.429443,521.643250 348.224945,520.819153 348.193970,519.323914 
M171.660263,512.282593 
	C173.326645,512.801819 174.993027,513.321045 176.803970,513.885254 
	C176.466141,516.930908 176.020737,519.691284 175.893539,522.466248 
	C175.779327,524.957642 176.014862,527.465088 176.096115,529.965454 
	C181.119339,523.530396 176.603592,513.771118 186.333847,509.949310 
	C182.301773,509.633087 178.583252,509.440277 174.903900,509.735565 
	C173.580444,509.841797 172.351242,511.122375 170.286926,512.294250 
	C165.338516,508.745514 163.219543,508.831757 159.066528,512.751038 
	C156.027756,515.618652 156.482666,517.920776 160.363068,519.323730 
	C161.824493,519.852173 163.283569,520.387024 164.743713,520.918945 
	C164.779343,521.392334 164.814972,521.865662 164.850601,522.339050 
	C162.236771,523.373596 159.622940,524.408142 155.728867,525.949402 
	C157.970886,527.140381 159.994598,529.000061 160.919144,528.558472 
	C163.618179,527.269348 167.188126,525.449158 167.887085,523.088257 
	C168.425308,521.270203 165.138306,518.319641 163.280655,515.453735 
	C165.442047,514.386292 168.232300,513.008240 171.660263,512.282593 
M187.305771,458.959991 
	C186.893082,458.968018 186.480392,458.976044 185.609406,458.428223 
	C183.846603,454.847076 182.206985,451.196381 180.248108,447.725891 
	C179.637207,446.643524 178.230301,445.478638 177.071228,445.342346 
	C174.177353,445.001984 171.216614,445.230133 167.903366,445.230133 
	C171.893143,458.019348 182.644821,467.930603 179.838669,482.185913 
	C184.346603,482.185913 188.053406,482.185913 192.472672,482.185913 
	C191.930527,477.477661 191.442886,473.242798 191.681122,469.013428 
	C192.456451,468.347351 193.231796,467.681274 194.139557,466.323212 
	C197.551132,459.478271 200.962708,452.633362 205.054199,444.424225 
	C199.831772,445.272919 194.889526,444.625366 192.929611,446.740845 
	C190.119598,449.773926 189.485870,454.823303 187.305771,458.959991 
M39.416836,482.856537 
	C40.184822,482.811523 40.952808,482.766510 42.552761,482.612122 
	C44.048462,482.606079 45.585388,482.370789 47.033180,482.631165 
	C56.394356,484.314575 64.074669,477.171936 62.401772,467.380463 
	C61.905159,464.473785 62.325310,461.410553 62.325161,458.419037 
	C62.324734,449.823029 57.682747,445.227783 49.003826,445.222382 
	C46.511448,445.220825 44.019089,445.198914 40.504524,445.102997 
	C39.822430,445.132477 39.140335,445.161957 37.603359,445.247192 
	C34.165802,445.247192 30.728245,445.247192 27.127283,445.247192 
	C27.127283,457.884735 27.127283,470.037109 27.127283,482.712433 
	C31.039379,482.712433 34.654724,482.712433 39.416836,482.856537 
M588.416870,482.856537 
	C589.184875,482.811523 589.952942,482.766541 591.552856,482.612122 
	C593.048584,482.606079 594.585449,482.370850 596.033264,482.631226 
	C605.393982,484.314667 613.074890,477.171997 611.401794,467.380432 
	C610.905090,464.473816 611.325195,461.410522 611.325073,458.419037 
	C611.324768,449.823181 606.682739,445.227814 598.003906,445.222412 
	C595.511536,445.220856 593.019165,445.198883 589.504578,445.102966 
	C588.822510,445.132446 588.140381,445.161926 586.603394,445.247192 
	C583.165833,445.247192 579.728271,445.247192 576.127319,445.247192 
	C576.127319,457.884766 576.127319,470.037170 576.127319,482.712433 
	C580.039368,482.712433 583.654663,482.712433 588.416870,482.856537 
M318.062225,376.223816 
	C318.132263,376.207916 318.202301,376.192017 318.272339,376.176117 
	C318.168976,376.122864 318.065613,376.069611 317.871155,375.343414 
	C283.136536,337.055817 248.401932,298.768219 212.778656,259.501038 
	C213.257690,263.242401 213.553192,265.544617 213.847137,267.847015 
	C220.178726,317.437744 246.846817,351.449951 292.985565,370.047729 
	C300.850922,373.218079 309.662262,374.041534 318.062225,376.223816 
M261.150299,294.352692 
	C285.801697,321.367767 310.453064,348.382843 335.497070,375.828186 
	C371.845917,336.014862 407.708496,296.734131 443.749298,257.258209 
	C407.520538,218.352875 371.560425,179.736084 335.497833,141.009216 
	C299.368408,179.812866 263.336395,218.511917 227.250504,257.268829 
	C238.655106,269.742828 249.664856,281.784943 261.150299,294.352692 
M403.424316,193.090439 
	C421.338196,212.679550 439.252045,232.268661 457.729004,252.473541 
	C456.765411,185.156311 401.394897,136.947449 349.093109,133.715942 
	C367.223206,153.528458 385.083893,173.046555 403.424316,193.090439 
M304.733521,151.236679 
	C310.026031,145.408295 315.318512,139.579895 321.059174,133.257996 
	C251.192566,142.077362 212.328278,203.346619 213.831802,250.573853 
	C244.022293,217.582901 274.140686,184.670700 304.733521,151.236679 
M451.275360,294.821655 
	C455.471649,283.441528 457.195892,271.626404 458.029388,258.484680 
	C421.866028,298.286957 386.485535,337.227570 351.105072,376.168182 
	C399.860687,368.141296 433.739380,342.023468 451.275360,294.821655 
M125.875099,465.471680 
	C125.875114,462.974945 125.796104,460.474762 125.905617,457.982849 
	C125.968384,456.554626 125.983650,454.100952 126.624229,453.882874 
	C131.935516,452.074554 128.781097,448.409973 129.113434,445.562805 
	C122.654739,445.562805 116.565865,445.562805 110.132698,445.562805 
	C110.890694,448.692963 107.850464,452.620544 113.165077,453.889954 
	C113.574310,453.987732 113.776543,455.654205 113.788467,456.595184 
	C113.849625,461.421387 113.845070,466.249146 113.792816,471.075562 
	C113.782600,472.019897 113.672958,473.668701 113.249878,473.795715 
	C108.045097,475.358215 110.579010,479.085907 110.379715,482.326233 
	C116.841484,482.326233 122.920670,482.326233 129.291260,482.326233 
	C129.291260,479.800781 129.945480,475.821686 129.185181,475.530029 
	C124.212868,473.622589 126.329514,469.645630 125.875099,465.471680 
M629.502869,446.152527 
	C625.716187,445.748535 621.929504,445.344543 618.061340,444.931885 
	C618.061340,457.991058 618.061340,470.178864 618.061340,482.287964 
	C622.041138,482.287964 625.639404,482.287964 629.713074,482.287964 
	C629.713074,479.550140 629.713074,477.100739 629.713074,474.651306 
	C629.713074,472.045624 629.713074,469.439911 629.713074,466.392181 
	C633.898010,466.392181 637.482788,466.392181 641.228760,466.392181 
	C641.228760,463.875427 641.228760,461.812469 641.228760,459.313873 
	C639.141479,459.313873 637.353088,459.313873 635.564636,459.313873 
	C633.663513,459.313873 631.762329,459.313873 629.686340,459.313873 
	C629.686340,454.671844 629.686340,450.855347 629.502869,446.152527 
M340.177643,470.467834 
	C340.108032,463.279205 335.073242,458.305084 327.861847,458.302246 
	C324.098938,458.300781 320.336060,458.302032 316.121277,458.302032 
	C316.121277,453.634521 316.121277,449.552917 316.121277,445.471313 
	C315.646271,445.094727 315.171265,444.718140 314.696259,444.341553 
	C312.131104,446.515686 309.410797,448.534302 307.038147,450.901398 
	C303.690643,454.241028 304.079498,459.661743 307.063385,463.316681 
	C310.395905,467.398682 314.277222,469.237488 319.560791,468.527466 
	C322.261566,468.164520 325.051361,468.463837 328.317139,468.463837 
	C328.317139,473.535706 328.317139,477.911591 328.317139,482.229645 
	C334.213287,482.621460 339.826904,477.194977 340.177643,470.467834 
M454.324036,479.876434 
	C454.324036,476.268341 454.324036,472.660248 454.324036,468.393402 
	C458.382843,468.393402 461.920502,468.393402 465.286926,468.393402 
	C465.286926,465.660522 465.286926,463.613739 465.286926,461.107666 
	C461.431274,461.107666 458.008606,461.107666 454.106476,461.107666 
	C454.106476,455.572632 454.106476,450.505066 454.106476,445.492645 
	C450.013458,445.492645 446.415436,445.492645 442.665344,445.492645 
	C442.665344,457.928711 442.665344,470.093109 442.665344,482.593994 
	C444.859680,482.593994 446.708344,482.831146 448.465240,482.531158 
	C450.456451,482.191193 452.365448,481.369904 454.324036,479.876434 
M245.590515,452.711182 
	C245.590515,460.124786 245.590515,467.538422 245.590515,475.191772 
	C242.888535,475.348846 240.127472,475.509369 237.297821,475.673859 
	C237.297821,478.041656 237.297821,480.107574 237.297821,482.590454 
	C239.411209,482.590454 241.216736,482.589478 243.022278,482.590576 
	C254.352921,482.597443 258.187164,478.832672 258.186890,467.700256 
	C258.186798,463.869965 258.507782,460.002228 258.065979,456.223602 
	C257.804993,453.991638 256.651947,451.686035 255.355499,449.784973 
	C250.635910,442.864410 243.653275,445.692017 237.351501,445.346985 
	C237.351501,447.973389 237.351501,450.022064 237.351501,452.410065 
	C240.031555,452.410065 242.349258,452.410065 245.590515,452.711182 
M346.822266,471.474976 
	C346.822266,475.063202 346.822266,478.651428 346.822266,482.197174 
	C351.194763,482.197174 354.911682,482.197174 359.149658,482.197174 
	C359.149658,476.766602 359.149658,471.717285 359.149658,466.225159 
	C363.259277,466.225159 366.839752,466.225159 370.298706,466.225159 
	C370.298706,463.681458 370.298706,461.635376 370.298706,459.125763 
	C366.320404,459.125763 362.750275,459.125763 358.650635,459.125763 
	C358.650635,454.278595 358.650635,449.899597 358.650635,445.472595 
	C354.499725,445.472595 350.910187,445.472595 346.822266,445.472595 
	C346.822266,453.963043 346.822266,462.223328 346.822266,471.474976 
M555.104858,474.414886 
	C554.176453,476.874054 553.248108,479.333252 552.216919,482.064636 
	C564.402954,483.412384 569.719177,478.644287 569.719543,467.887634 
	C569.719604,464.899750 569.719604,461.911835 569.719421,458.923950 
	C569.718933,448.587189 564.144775,444.049255 553.250610,445.773346 
	C553.250610,447.805115 553.250610,449.879913 553.250610,452.178833 
	C556.889648,451.824615 557.930054,453.524994 557.743042,456.849396 
	C557.482361,461.482605 557.787048,466.145782 557.602234,470.786255 
	C557.554077,471.994598 556.586731,473.166290 555.104858,474.414886 
M277.370544,482.569000 
	C283.188629,481.500824 278.789795,477.386993 280.076172,474.958038 
	C278.306763,474.467926 276.943878,474.090393 275.724823,473.752716 
	C275.724823,466.616669 275.724823,459.838409 275.724823,452.832916 
	C277.240143,452.522919 278.603058,452.244080 279.784363,452.002411 
	C279.784363,449.570007 279.784363,447.525818 279.784363,445.527466 
	C267.994446,444.645264 263.479950,448.705688 263.479889,459.817352 
	C263.479889,462.974121 263.478058,466.130859 263.480225,469.287628 
	C263.485687,477.187531 268.747070,482.551056 277.370544,482.569000 
M412.621765,473.323639 
	C412.587891,468.012695 412.726593,462.693054 412.458588,457.393951 
	C412.284424,453.949493 412.850464,451.544952 416.963013,452.035706 
	C416.963013,449.637177 416.963013,447.693878 416.963013,445.786011 
	C405.901154,443.979919 400.480011,448.511169 400.479889,459.357727 
	C400.479828,462.345886 400.479706,465.334015 400.479919,468.322174 
	C400.480682,478.820099 406.611481,483.939575 417.014252,481.970276 
	C417.014252,479.707306 417.014252,477.414825 417.014252,474.913269 
	C415.674347,474.628174 414.426422,474.362640 412.621765,473.323639 
M234.691483,480.905487 
	C234.691483,469.137238 234.691483,457.368958 234.691483,445.420105 
	C230.423996,445.420105 226.812759,445.420105 222.986359,445.420105 
	C222.986359,457.805725 222.986359,470.043030 222.986359,482.929382 
	C227.058685,482.517670 230.772430,482.142242 234.691483,480.905487 
M427.620026,482.544373 
	C429.930206,480.465179 432.372467,478.512268 434.514191,476.272034 
	C436.759491,473.923370 437.045502,453.651733 434.976898,451.238220 
	C431.011383,446.611389 426.497467,443.357788 419.774902,445.847473 
	C419.774902,447.852325 419.774902,449.911346 419.774902,451.993469 
	C421.322906,452.298187 422.584198,452.546509 423.950806,452.815521 
	C423.950806,459.942047 423.950806,466.893341 423.950806,473.916077 
	C422.418365,474.292755 421.036041,474.632538 419.723267,474.955231 
	C419.723267,477.503662 419.723267,479.778748 419.723267,482.575653 
	C422.249939,482.575653 424.531342,482.575653 427.620026,482.544373 
M282.476135,450.127838 
	C283.765137,451.239868 285.054138,452.351929 286.950073,453.987640 
	C286.950073,459.910156 286.950073,466.855927 286.950073,473.951843 
	C285.450562,474.296814 284.067383,474.615051 282.885376,474.886993 
	C282.885376,477.588440 282.885376,479.978851 282.885376,482.040344 
	C288.922241,483.778290 293.506256,482.217773 296.566986,477.262543 
	C297.785889,475.289154 298.874695,472.942047 299.061096,470.685669 
	C299.443237,466.058746 299.520935,461.342072 299.038330,456.734131 
	C298.774994,454.219604 297.427216,451.645874 296.010712,449.460388 
	C292.928925,444.705536 288.132782,444.663727 282.827240,445.572754 
	C282.714233,446.756836 282.592499,448.032898 282.476135,450.127838 
M533.988403,454.146393 
	C533.986694,458.971588 533.983582,463.796783 533.983643,468.621979 
	C533.983826,478.803619 540.016357,483.799164 550.426086,482.009888 
	C550.426086,479.663513 550.426086,477.279846 550.426086,474.917206 
	C548.789673,474.502808 547.437439,474.160400 546.166565,473.838562 
	C546.166565,466.623199 546.166565,459.823242 546.166565,452.854797 
	C547.674011,452.522339 549.073364,452.213715 550.326965,451.937256 
	C550.326965,449.623535 550.326965,447.558319 550.326965,445.535706 
	C541.156677,444.741272 538.809021,445.892944 533.988403,454.146393 
M147.869934,480.049530 
	C147.869934,468.610870 147.869934,457.172241 147.869934,445.549011 
	C143.576508,445.549011 139.854584,445.549011 135.826340,445.549011 
	C135.826340,457.169830 135.820679,468.479095 135.838577,479.788300 
	C135.839828,480.578766 136.015839,481.368958 136.244888,483.279572 
	C140.292419,482.468109 144.068619,481.711029 147.869934,480.049530 
M506.161194,480.901428 
	C506.161194,469.116455 506.161194,457.331512 506.161194,445.588196 
	C500.895325,445.234253 494.294098,450.340790 494.172913,454.724304 
	C494.002716,460.880890 493.974457,467.050842 494.179871,473.205261 
	C494.340179,478.008057 501.522583,483.019623 506.161194,480.901428 
M524.218994,448.183441 
	C519.845886,442.917877 514.131897,446.075287 508.739563,445.155457 
	C508.739563,447.822083 508.739563,449.884888 508.739563,452.153320 
	C511.418640,452.318329 513.832275,452.466980 516.432129,452.627106 
	C516.600891,455.267578 516.745300,457.526733 516.897522,459.908020 
	C520.900818,459.908020 524.632019,459.908020 528.327271,459.908020 
	C529.124451,452.919769 529.124451,452.919769 524.218994,448.183441 
M509.304688,482.430115 
	C512.462219,482.497681 515.625610,482.718781 518.776001,482.598755 
	C524.255615,482.389954 529.312744,475.512817 528.019287,470.065826 
	C524.443359,470.065826 520.838928,470.065826 517.009094,470.065826 
	C516.754883,471.802185 516.523987,473.379333 516.269226,475.119354 
	C513.656616,475.302094 511.237823,475.471283 508.396515,475.670044 
	C508.507629,477.946533 508.603027,479.900757 509.304688,482.430115 
M475.172791,455.084320 
	C475.172791,451.960236 475.172791,448.836121 475.172791,445.526978 
	C468.821777,445.526978 462.944153,445.526978 456.974854,445.526978 
	C456.974854,447.903931 456.974854,449.977478 456.974854,452.153442 
	C459.043762,452.304840 460.831329,452.435669 462.778625,452.578156 
	C463.023163,454.103088 463.248840,455.510529 463.603516,457.722321 
	C467.592896,457.117035 471.346558,456.547485 475.172791,455.084320 
M187.740784,523.513489 
	C187.984589,524.917603 188.228378,526.321716 188.472183,527.725769 
	C188.897018,527.749756 189.321869,527.773743 189.746719,527.797668 
	C190.511993,526.335693 191.277267,524.873718 192.049576,523.398315 
	C194.952652,526.124084 197.692429,528.696472 200.432220,531.268921 
	C200.896088,530.813416 201.359970,530.357910 201.823853,529.902344 
	C199.846390,527.011536 197.868927,524.120728 195.879898,521.213013 
	C199.030136,518.281494 201.001587,514.760193 198.195175,511.458893 
	C195.469910,508.253143 191.692566,509.265839 190.072601,510.412384 
	C189.123886,515.666504 188.484970,519.204895 187.740784,523.513489 
M156.063705,474.647552 
	C154.205826,475.075989 152.347931,475.504456 150.398926,475.953918 
	C150.398926,478.047699 150.398926,480.101288 150.398926,482.359741 
	C156.061630,482.359741 161.424820,482.359741 166.924561,482.359741 
	C166.924561,478.382202 166.924561,474.664948 166.924561,470.640686 
	C164.034500,470.640686 161.366501,470.349792 158.822693,470.784943 
	C157.815872,470.957184 157.085175,472.743500 156.063705,474.647552 
M647.198242,471.618225 
	C644.728149,471.703979 640.377380,471.160736 640.103088,471.980865 
	C638.669189,476.268188 635.053040,475.059235 632.253540,475.798065 
	C632.253540,478.055267 632.253540,480.119812 632.253540,482.261230 
	C638.584534,482.261230 644.608521,482.261230 650.914856,482.261230 
	C650.914856,480.414368 650.915283,478.936951 650.914734,477.459564 
	C650.914429,476.466675 651.255554,475.281219 650.831299,474.526093 
	C650.197693,473.398407 649.024597,472.573822 647.198242,471.618225 
M388.995361,519.375366 
	C386.448761,525.264893 386.448761,525.264893 388.590515,526.783325 
	C391.067139,524.860168 393.379120,523.064819 396.048920,520.991638 
	C397.512390,525.010681 398.506927,527.741882 399.501465,530.473083 
	C401.084290,523.846313 401.666870,517.524963 398.808746,511.555115 
	C398.279083,510.448761 396.882507,509.126099 395.827515,509.073334 
	C394.684662,509.016174 392.953186,510.051880 392.397064,511.098938 
	C391.128662,513.486816 390.421722,516.172913 388.995361,519.375366 
M367.908722,474.637939 
	C365.721222,475.065643 363.533691,475.493378 361.452545,475.900299 
	C361.452545,478.155579 361.452545,480.206238 361.452545,482.632233 
	C366.755951,482.632233 371.698944,482.647034 376.641693,482.619476 
	C377.604736,482.614105 378.566864,482.444122 379.755524,482.327972 
	C379.755524,478.754395 379.755524,475.392334 379.755524,471.619385 
	C376.679260,471.619385 373.868530,471.421143 371.111267,471.718750 
	C370.035065,471.834961 369.079254,473.066467 367.908722,474.637939 
M317.755463,475.193298 
	C317.228851,473.894989 316.702240,472.596680 316.191162,471.336700 
	C312.426788,471.336700 308.845306,471.336700 305.291077,471.336700 
	C304.487976,480.195099 312.772247,484.472443 325.773621,482.043945 
	C325.773621,479.999268 325.773621,477.930115 325.773621,475.344360 
	C323.222626,475.344360 320.939056,475.344360 317.755463,475.193298 
M567.230957,519.981262 
	C567.028809,516.737427 570.695068,513.282349 566.278198,509.481964 
	C565.231934,513.009277 564.352722,515.973633 563.339111,519.390869 
	C560.079529,516.269958 561.523438,510.144226 554.968933,510.245819 
	C554.523682,515.747253 550.996094,520.871704 555.101990,526.673584 
	C555.884583,523.414490 556.667236,520.155334 557.449829,516.896240 
	C557.771118,516.914368 558.092407,516.932495 558.413696,516.950623 
	C559.914856,520.701965 561.416016,524.453308 563.549011,529.783508 
	C565.059021,525.960693 566.082886,523.368652 567.230957,519.981262 
M324.577637,445.207214 
	C322.638184,445.207214 320.698730,445.207214 318.537109,445.207214 
	C318.537109,447.836060 318.537109,449.891205 318.537109,452.246399 
	C321.593842,452.246399 324.386139,452.246399 327.081146,452.246399 
	C329.367004,459.266785 334.798523,454.885315 339.944183,456.807129 
	C338.938721,453.921692 338.619293,452.068634 337.711060,450.573273 
	C334.939056,446.009430 330.762970,444.288239 324.577637,445.207214 
M647.190063,445.207489 
	C642.249512,445.207489 637.309021,445.207489 632.251587,445.207489 
	C632.251587,447.870392 632.251587,449.936707 632.251587,452.062775 
	C634.637817,452.308777 638.052734,451.800903 638.645081,452.864685 
	C641.929871,458.763733 646.607971,454.775513 650.898071,456.004852 
	C650.898071,452.814453 651.195740,450.446136 650.773376,448.214111 
	C650.559814,447.085480 649.044250,446.203247 647.190063,445.207489 
M213.051727,512.978638 
	C213.474457,517.484985 212.078049,520.931030 206.938507,523.126526 
	C207.303131,518.482544 207.616867,514.486633 208.023636,509.305817 
	C203.624191,513.602356 202.451218,522.645081 205.030472,525.947144 
	C205.683624,526.783386 207.180161,527.159790 208.353256,527.347900 
	C210.540161,527.698547 212.774048,527.756042 215.788193,528.000427 
	C216.086685,523.558899 216.641571,518.308289 216.702713,513.051941 
	C216.730881,510.630768 215.507095,510.446014 213.051727,512.978638 
M361.104889,447.620544 
	C361.172241,449.069336 361.239563,450.518158 361.311188,452.058990 
	C363.725800,452.294647 367.189148,451.783447 367.748077,452.827332 
	C370.970337,458.845490 375.725677,454.699554 379.635986,455.951172 
	C379.635986,451.956573 379.635986,448.736755 379.635986,445.210480 
	C374.103088,445.210480 368.960968,445.136414 363.824921,445.279663 
	C362.917145,445.304993 362.034698,446.237091 361.104889,447.620544 
M121.890526,513.368958 
	C120.940880,514.710876 119.871628,515.985046 119.065636,517.408325 
	C117.185249,520.728760 118.315002,525.054321 121.518402,526.877441 
	C125.271828,529.013611 128.556244,527.661926 130.475494,524.435242 
	C131.782959,522.237061 132.094193,519.207520 132.093842,516.549805 
	C132.093582,514.614563 131.368210,511.588989 130.062790,510.977295 
	C127.552025,509.800781 124.335739,509.753357 121.890526,513.368958 
M240.389313,517.340759 
	C238.901520,528.349365 238.901520,528.349365 241.371918,529.575500 
	C245.315659,523.558716 240.401291,513.780029 250.337173,509.953796 
	C245.003601,509.407074 239.955856,508.733551 234.982483,510.839600 
	C236.195099,514.229126 241.811295,511.499603 240.389313,517.340759 
M113.152000,521.715271 
	C110.631172,522.588867 108.110344,523.462463 105.589516,524.336121 
	C105.155373,524.025696 104.721230,523.715332 104.287086,523.404968 
	C105.070786,520.911438 105.251587,517.908997 106.806664,516.066528 
	C108.382462,514.199524 111.316719,513.479065 113.655975,512.256409 
	C109.765472,509.054413 105.507637,509.646027 102.921173,514.932556 
	C101.484398,517.869141 101.912415,521.948120 102.324364,525.414246 
	C102.442703,526.409973 105.971397,528.160095 106.998299,527.655396 
	C109.405113,526.472595 111.244392,524.134949 113.152000,521.715271 
M223.604355,518.910889 
	C226.320587,516.480469 229.036804,514.050049 232.322159,511.110352 
	C230.383926,510.953583 228.067291,510.094299 226.326660,510.754211 
	C221.522476,512.575623 219.376282,517.296509 220.001434,522.506714 
	C220.428284,526.064087 222.233124,528.205261 225.746719,527.754639 
	C229.074387,527.327881 231.857361,525.645020 231.966736,521.396790 
	C224.002670,524.605713 224.002670,524.605713 223.604355,518.910889 
M374.149963,513.687195 
	C373.292633,516.260620 371.971252,518.785217 371.693695,521.419800 
	C371.334869,524.825806 372.658264,527.836365 376.787537,527.771973 
	C380.628052,527.712219 382.732208,525.374939 384.386841,520.894714 
	C380.905212,522.434937 378.640106,523.437012 375.164215,524.974731 
	C375.425598,521.795288 374.854187,519.166992 375.911499,517.922913 
	C377.971985,515.498413 380.944489,513.848938 383.479736,511.923706 
	C380.392670,508.954193 379.615448,509.011139 374.149963,513.687195 
M445.352509,510.082275 
	C439.278778,511.569855 436.058746,515.504150 436.367584,521.218018 
	C436.545319,524.506348 437.160461,527.762207 441.404175,527.753418 
	C445.227203,527.745483 447.700012,525.752502 448.657104,521.180786 
	C445.714233,522.422974 443.330444,523.429138 439.940063,524.860229 
	C440.130768,521.842224 439.529694,519.326050 440.516083,518.198425 
	C442.703247,515.698059 445.687042,513.894531 448.467773,511.711212 
	C447.961212,511.385773 447.029053,510.786926 445.352509,510.082275 
M511.541809,527.385315 
	C511.901489,528.200317 512.261169,529.015320 512.722351,530.060242 
	C517.063599,523.694580 511.975128,513.618774 522.163330,510.404785 
	C521.998474,510.016022 521.833618,509.627258 521.668762,509.238495 
	C516.735107,509.498138 511.801422,509.757782 506.867767,510.017426 
	C506.817932,510.670990 506.768097,511.324585 506.718231,511.978180 
	C508.583740,512.588867 510.449219,513.199524 512.381165,513.831970 
	C512.058960,518.217041 511.745331,522.485474 511.541809,527.385315 
M484.808533,519.664124 
	C485.358276,512.133728 485.358276,512.133728 482.281097,511.087250 
	C480.510101,521.236145 478.835083,523.656860 473.167419,524.258301 
	C473.071198,524.687805 472.974945,525.117371 472.878723,525.546875 
	C476.400330,526.464172 479.921936,527.381470 483.979370,528.438354 
	C484.214081,526.022644 484.480377,523.281982 484.808533,519.664124 
M252.238983,527.215271 
	C252.581238,527.907776 252.923492,528.600281 253.265747,529.292725 
	C253.721283,529.306946 254.176819,529.321106 254.632370,529.335327 
	C255.482727,523.297119 256.362457,517.262512 257.093842,511.209961 
	C257.129242,510.917084 255.791946,510.091736 255.217133,510.195740 
	C254.651291,510.298096 253.908463,511.221161 253.817810,511.865021 
	C253.129013,516.756348 252.581299,521.667419 252.238983,527.215271 
z"/>
<path fill="#E9E9EA" opacity="1.000000" stroke="none" 
	d="
M670.989258,675.035583 
	C671.991272,674.068604 673.423279,673.268311 673.880371,672.089966 
	C674.386108,670.785950 674.002136,669.135986 674.002136,667.636658 
	C674.002625,445.736877 674.002808,223.837097 674.001465,1.468656 
	C675.332397,1.000000 676.664734,1.000000 677.996460,1.000000 
	C677.995728,226.666672 677.995728,452.333344 677.993652,678.000000 
	C675.992981,678.000000 673.994385,678.000000 671.497925,677.628784 
	C670.996460,676.516907 670.992859,675.776245 670.989258,675.035583 
z"/>
<path fill="#E4E4E4" opacity="1.000000" stroke="none" 
	d="
M670.529419,675.025452 
	C670.992859,675.776245 670.996460,676.516907 671.000000,677.628784 
	C449.166656,678.000000 227.333328,678.005859 5.500094,677.858582 
	C4.210858,677.857727 0.872537,680.328430 1.000000,675.500000 
	C224.023193,675.005127 447.046387,675.010254 670.529419,675.025452 
z"/>
<path fill="#351F05" opacity="1.000000" stroke="none" 
	d="
M260.912445,294.089874 
	C249.664856,281.784943 238.655106,269.742828 227.250504,257.268829 
	C263.336395,218.511917 299.368408,179.812866 335.497833,141.009216 
	C371.560425,179.736084 407.520538,218.352875 443.749298,257.258209 
	C407.708496,296.734131 371.845917,336.014862 335.497070,375.828186 
	C310.453064,348.382843 285.801697,321.367767 260.912445,294.089874 
M364.506287,219.293625 
	C358.854950,218.188416 355.708008,220.863693 352.565979,225.516830 
	C337.484924,247.850861 321.959076,269.884583 306.590912,292.024750 
	C305.621307,293.421570 304.648987,294.816528 303.677917,296.212341 
	C303.955078,296.703308 304.232208,297.194275 304.509369,297.685242 
	C307.929199,296.778320 312.941833,297.007812 314.524231,294.789948 
	C331.720032,270.688629 348.385986,246.209076 365.134521,221.790237 
	C365.532104,221.210571 365.213257,220.139511 364.506287,219.293625 
M284.394714,223.190170 
	C283.975006,229.763824 283.281097,236.335648 283.236969,242.911819 
	C283.209930,246.950409 282.633179,250.294495 279.425018,253.123642 
	C276.826691,255.415009 275.448792,258.696045 278.760468,261.255981 
	C283.097260,264.608337 283.398407,268.903046 283.166687,273.681244 
	C283.005554,277.003021 283.377747,280.359985 283.090576,283.664642 
	C282.202209,293.887268 286.776917,297.020233 297.733093,296.118439 
	C297.733093,293.732208 297.733093,291.336548 297.733093,288.964539 
	C295.349976,288.801239 293.257660,288.657898 291.478455,288.536011 
	C288.833069,277.895630 294.985535,266.400330 285.890259,257.444336 
	C295.142487,248.729492 288.591919,237.083786 291.496429,227.198669 
	C293.706909,226.968246 295.795319,226.750549 297.711639,226.550781 
	C297.711639,223.913559 297.711639,221.653107 297.711639,217.739426 
	C292.912811,219.549561 288.905853,221.060974 284.394714,223.190170 
M387.834686,288.805328 
	C387.844574,283.146851 388.085083,277.476196 387.787720,271.833893 
	C387.569977,267.701721 388.458130,264.400970 391.814148,261.761383 
	C394.719574,259.476227 394.991913,256.325714 392.279083,254.033112 
	C387.878784,250.314545 387.556732,245.673813 387.832733,240.577499 
	C388.003479,237.424576 387.864838,234.254868 387.864319,231.092697 
	C387.862610,221.244644 383.271118,217.691330 373.260132,219.762802 
	C373.260132,222.025589 373.260132,224.278656 373.260132,226.613525 
	C375.608154,226.842102 377.689453,227.044724 379.599976,227.230698 
	C382.151611,237.433792 376.040894,248.771759 385.100281,257.449463 
	C375.836548,266.431030 382.421417,278.207275 379.437744,288.510864 
	C377.359924,288.691772 375.292419,288.871765 373.206909,289.053345 
	C373.206909,291.609833 373.206909,293.871613 373.206909,296.108826 
	C381.879395,296.918945 385.099030,295.457001 387.834686,288.805328 
z"/>
<path fill="#3EC5D7" opacity="1.000000" stroke="none" 
	d="
M403.184448,192.827545 
	C385.083893,173.046555 367.223206,153.528458 349.093109,133.715942 
	C401.394897,136.947449 456.765411,185.156311 457.729004,252.473541 
	C439.252045,232.268661 421.338196,212.679550 403.184448,192.827545 
z"/>
<path fill="#EA415C" opacity="1.000000" stroke="none" 
	d="
M304.496307,151.497589 
	C274.140686,184.670700 244.022293,217.582901 213.831802,250.573853 
	C212.328278,203.346619 251.192566,142.077362 321.059174,133.257996 
	C315.318512,139.579895 310.026031,145.408295 304.496307,151.497589 
z"/>
<path fill="#3C9123" opacity="1.000000" stroke="none" 
	d="
M451.165405,295.202271 
	C433.739380,342.023468 399.860687,368.141296 351.105072,376.168182 
	C386.485535,337.227570 421.866028,298.286957 458.029388,258.484680 
	C457.195892,271.626404 455.471649,283.441528 451.165405,295.202271 
z"/>
<path fill="#FABC2C" opacity="1.000000" stroke="none" 
	d="
M318.036591,375.949219 
	C309.662262,374.041534 300.850922,373.218079 292.985565,370.047729 
	C246.846817,351.449951 220.178726,317.437744 213.847137,267.847015 
	C213.553192,265.544617 213.257690,263.242401 212.778656,259.501038 
	C248.401932,298.768219 283.136536,337.055817 317.937347,375.665375 
	C318.003540,375.987335 318.036591,375.949188 318.036591,375.949219 
z"/>
<path fill="#3D280F" opacity="1.000000" stroke="none" 
	d="
M125.875092,465.957672 
	C126.329514,469.645630 124.212868,473.622589 129.185181,475.530029 
	C129.945480,475.821686 129.291260,479.800781 129.291260,482.326233 
	C122.920670,482.326233 116.841484,482.326233 110.379715,482.326233 
	C110.579010,479.085907 108.045097,475.358215 113.249878,473.795715 
	C113.672958,473.668701 113.782600,472.019897 113.792816,471.075562 
	C113.845070,466.249146 113.849625,461.421387 113.788467,456.595184 
	C113.776543,455.654205 113.574310,453.987732 113.165077,453.889954 
	C107.850464,452.620544 110.890694,448.692963 110.132698,445.562805 
	C116.565865,445.562805 122.654739,445.562805 129.113434,445.562805 
	C128.781097,448.409973 131.935516,452.074554 126.624229,453.882874 
	C125.983650,454.100952 125.968384,456.554626 125.905617,457.982849 
	C125.796104,460.474762 125.875114,462.974945 125.875092,465.957672 
z"/>
<path fill="#3D280F" opacity="1.000000" stroke="none" 
	d="
M629.594604,446.595673 
	C629.686340,450.855347 629.686340,454.671844 629.686340,459.313873 
	C631.762329,459.313873 633.663513,459.313873 635.564636,459.313873 
	C637.353088,459.313873 639.141479,459.313873 641.228760,459.313873 
	C641.228760,461.812469 641.228760,463.875427 641.228760,466.392181 
	C637.482788,466.392181 633.898010,466.392181 629.713074,466.392181 
	C629.713074,469.439911 629.713074,472.045624 629.713074,474.651306 
	C629.713074,477.100739 629.713074,479.550140 629.713074,482.287964 
	C625.639404,482.287964 622.041138,482.287964 618.061340,482.287964 
	C618.061340,470.178864 618.061340,457.991058 618.061340,444.931885 
	C621.929504,445.344543 625.716187,445.748535 629.594604,446.595673 
z"/>
<path fill="#3D280F" opacity="1.000000" stroke="none" 
	d="
M340.177643,470.899567 
	C339.826904,477.194977 334.213287,482.621460 328.317139,482.229645 
	C328.317139,477.911591 328.317139,473.535706 328.317139,468.463837 
	C325.051361,468.463837 322.261566,468.164520 319.560791,468.527466 
	C314.277222,469.237488 310.395905,467.398682 307.063385,463.316681 
	C304.079498,459.661743 303.690643,454.241028 307.038147,450.901398 
	C309.410797,448.534302 312.131104,446.515686 314.696259,444.341553 
	C315.171265,444.718140 315.646271,445.094727 316.121277,445.471313 
	C316.121277,449.552917 316.121277,453.634521 316.121277,458.302032 
	C320.336060,458.302032 324.098938,458.300781 327.861847,458.302246 
	C335.073242,458.305084 340.108032,463.279205 340.177643,470.899567 
z"/>
<path fill="#3F2B12" opacity="1.000000" stroke="none" 
	d="
M454.317108,480.317139 
	C452.365448,481.369904 450.456451,482.191193 448.465240,482.531158 
	C446.708344,482.831146 444.859680,482.593994 442.665344,482.593994 
	C442.665344,470.093109 442.665344,457.928711 442.665344,445.492645 
	C446.415436,445.492645 450.013458,445.492645 454.106476,445.492645 
	C454.106476,450.505066 454.106476,455.572632 454.106476,461.107666 
	C458.008606,461.107666 461.431274,461.107666 465.286926,461.107666 
	C465.286926,463.613739 465.286926,465.660522 465.286926,468.393402 
	C461.920502,468.393402 458.382843,468.393402 454.324036,468.393402 
	C454.324036,472.660248 454.324036,476.268341 454.317108,480.317139 
z"/>
<path fill="#3F2A11" opacity="1.000000" stroke="none" 
	d="
M245.128738,452.560608 
	C242.349258,452.410065 240.031555,452.410065 237.351501,452.410065 
	C237.351501,450.022064 237.351501,447.973389 237.351501,445.346985 
	C243.653275,445.692017 250.635910,442.864410 255.355499,449.784973 
	C256.651947,451.686035 257.804993,453.991638 258.065979,456.223602 
	C258.507782,460.002228 258.186798,463.869965 258.186890,467.700256 
	C258.187164,478.832672 254.352921,482.597443 243.022278,482.590576 
	C241.216736,482.589478 239.411209,482.590454 237.297821,482.590454 
	C237.297821,480.107574 237.297821,478.041656 237.297821,475.673859 
	C240.127472,475.509369 242.888535,475.348846 245.590515,475.191772 
	C245.590515,467.538422 245.590515,460.124786 245.128738,452.560608 
z"/>
<path fill="#3F2B12" opacity="1.000000" stroke="none" 
	d="
M41.526718,445.186340 
	C44.019089,445.198914 46.511448,445.220825 49.003826,445.222382 
	C57.682747,445.227783 62.324734,449.823029 62.325161,458.419037 
	C62.325310,461.410553 61.905159,464.473785 62.401772,467.380463 
	C64.074669,477.171936 56.394356,484.314575 47.033180,482.631165 
	C45.585388,482.370789 44.048462,482.606079 41.965179,482.279175 
	C41.377602,479.985718 41.377602,478.025146 41.377602,475.748657 
	C44.319595,475.540680 47.188957,475.337830 49.910027,475.145477 
	C49.910027,467.334625 49.910027,459.998749 49.910027,452.108459 
	C46.809933,452.108459 44.101936,452.108459 41.007469,452.108459 
	C41.210258,449.405060 41.368488,447.295685 41.526718,445.186340 
z"/>
<path fill="#3F2B12" opacity="1.000000" stroke="none" 
	d="
M590.526794,445.186279 
	C593.019165,445.198883 595.511536,445.220856 598.003906,445.222412 
	C606.682739,445.227814 611.324768,449.823181 611.325073,458.419037 
	C611.325195,461.410522 610.905090,464.473816 611.401794,467.380432 
	C613.074890,477.171997 605.393982,484.314667 596.033264,482.631226 
	C594.585449,482.370850 593.048584,482.606079 590.965271,482.279236 
	C590.377686,479.985779 590.377686,478.025238 590.377686,475.748596 
	C593.320496,475.540558 596.184021,475.338135 598.910034,475.145416 
	C598.910034,467.334686 598.910034,459.998810 598.910034,452.108459 
	C595.814514,452.108459 593.103699,452.108459 590.007446,452.108459 
	C590.209778,449.411133 590.368286,447.298706 590.526794,445.186279 
z"/>
<path fill="#3D280F" opacity="1.000000" stroke="none" 
	d="
M346.822266,470.979309 
	C346.822266,462.223328 346.822266,453.963043 346.822266,445.472595 
	C350.910187,445.472595 354.499725,445.472595 358.650635,445.472595 
	C358.650635,449.899597 358.650635,454.278595 358.650635,459.125763 
	C362.750275,459.125763 366.320404,459.125763 370.298706,459.125763 
	C370.298706,461.635376 370.298706,463.681458 370.298706,466.225159 
	C366.839752,466.225159 363.259277,466.225159 359.149658,466.225159 
	C359.149658,471.717285 359.149658,476.766602 359.149658,482.197174 
	C354.911682,482.197174 351.194763,482.197174 346.822266,482.197174 
	C346.822266,478.651428 346.822266,475.063202 346.822266,470.979309 
z"/>
<path fill="#3F2A11" opacity="1.000000" stroke="none" 
	d="
M80.144547,446.999298 
	C82.561966,444.117737 91.177597,444.383331 92.461845,447.545837 
	C97.069550,458.892761 101.507050,470.308746 106.429871,482.763702 
	C101.168976,481.444153 96.287491,485.180176 92.105934,479.272400 
	C90.807716,477.438293 85.224174,478.637360 81.277618,477.861755 
	C81.516640,472.240997 85.094833,470.928223 89.875336,471.268280 
	C88.032837,466.560852 86.530571,462.722687 84.951447,458.715088 
	C84.743187,458.327576 84.565529,458.157898 84.294495,457.689697 
	C84.167801,456.884735 84.088219,456.426697 83.935059,455.779236 
	C83.725700,455.345459 83.533989,455.158447 83.218674,454.732697 
	C83.116890,454.237030 83.082787,454.037445 83.034714,453.457825 
	C82.062012,451.051636 81.103279,449.025452 80.144547,446.999298 
z"/>
<path fill="#3F2A11" opacity="1.000000" stroke="none" 
	d="
M555.573242,474.384827 
	C556.586731,473.166290 557.554077,471.994598 557.602234,470.786255 
	C557.787048,466.145782 557.482361,461.482605 557.743042,456.849396 
	C557.930054,453.524994 556.889648,451.824615 553.250610,452.178833 
	C553.250610,449.879913 553.250610,447.805115 553.250610,445.773346 
	C564.144775,444.049255 569.718933,448.587189 569.719421,458.923950 
	C569.719604,461.911835 569.719604,464.899750 569.719543,467.887634 
	C569.719177,478.644287 564.402954,483.412384 552.216919,482.064636 
	C553.248108,479.333252 554.176453,476.874054 555.573242,474.384827 
z"/>
<path fill="#3B250C" opacity="1.000000" stroke="none" 
	d="
M276.939209,482.569733 
	C268.747070,482.551056 263.485687,477.187531 263.480225,469.287628 
	C263.478058,466.130859 263.479889,462.974121 263.479889,459.817352 
	C263.479950,448.705688 267.994446,444.645264 279.784363,445.527466 
	C279.784363,447.525818 279.784363,449.570007 279.784363,452.002411 
	C278.603058,452.244080 277.240143,452.522919 275.724823,452.832916 
	C275.724823,459.838409 275.724823,466.616669 275.724823,473.752716 
	C276.943878,474.090393 278.306763,474.467926 280.076172,474.958038 
	C278.789795,477.386993 283.188629,481.500824 276.939209,482.569733 
z"/>
<path fill="#3B250C" opacity="1.000000" stroke="none" 
	d="
M412.900116,473.710388 
	C414.426422,474.362640 415.674347,474.628174 417.014252,474.913269 
	C417.014252,477.414825 417.014252,479.707306 417.014252,481.970276 
	C406.611481,483.939575 400.480682,478.820099 400.479919,468.322174 
	C400.479706,465.334015 400.479828,462.345886 400.479889,459.357727 
	C400.480011,448.511169 405.901154,443.979919 416.963013,445.786011 
	C416.963013,447.693878 416.963013,449.637177 416.963013,452.035706 
	C412.850464,451.544952 412.284424,453.949493 412.458588,457.393951 
	C412.726593,462.693054 412.587891,468.012695 412.900116,473.710388 
z"/>
<path fill="#3F2A11" opacity="1.000000" stroke="none" 
	d="
M234.588837,481.336121 
	C230.772430,482.142242 227.058685,482.517670 222.986359,482.929382 
	C222.986359,470.043030 222.986359,457.805725 222.986359,445.420105 
	C226.812759,445.420105 230.423996,445.420105 234.691483,445.420105 
	C234.691483,457.368958 234.691483,469.137238 234.588837,481.336121 
z"/>
<path fill="#3D280F" opacity="1.000000" stroke="none" 
	d="
M427.216370,482.559998 
	C424.531342,482.575653 422.249939,482.575653 419.723267,482.575653 
	C419.723267,479.778748 419.723267,477.503662 419.723267,474.955231 
	C421.036041,474.632538 422.418365,474.292755 423.950806,473.916077 
	C423.950806,466.893341 423.950806,459.942047 423.950806,452.815521 
	C422.584198,452.546509 421.322906,452.298187 419.774902,451.993469 
	C419.774902,449.911346 419.774902,447.852325 419.774902,445.847473 
	C426.497467,443.357788 431.011383,446.611389 434.976898,451.238220 
	C437.045502,453.651733 436.759491,473.923370 434.514191,476.272034 
	C432.372467,478.512268 429.930206,480.465179 427.216370,482.559998 
z"/>
<path fill="#3D280F" opacity="1.000000" stroke="none" 
	d="
M282.473450,449.718384 
	C282.592499,448.032898 282.714233,446.756836 282.827240,445.572754 
	C288.132782,444.663727 292.928925,444.705536 296.010712,449.460388 
	C297.427216,451.645874 298.774994,454.219604 299.038330,456.734131 
	C299.520935,461.342072 299.443237,466.058746 299.061096,470.685669 
	C298.874695,472.942047 297.785889,475.289154 296.566986,477.262543 
	C293.506256,482.217773 288.922241,483.778290 282.885376,482.040344 
	C282.885376,479.978851 282.885376,477.588440 282.885376,474.886993 
	C284.067383,474.615051 285.450562,474.296814 286.950073,473.951843 
	C286.950073,466.855927 286.950073,459.910156 286.950073,453.987640 
	C285.054138,452.351929 283.765137,451.239868 282.473450,449.718384 
z"/>
<path fill="#3F2B12" opacity="1.000000" stroke="none" 
	d="
M534.010986,453.723389 
	C538.809021,445.892944 541.156677,444.741272 550.326965,445.535706 
	C550.326965,447.558319 550.326965,449.623535 550.326965,451.937256 
	C549.073364,452.213715 547.674011,452.522339 546.166565,452.854797 
	C546.166565,459.823242 546.166565,466.623199 546.166565,473.838562 
	C547.437439,474.160400 548.789673,474.502808 550.426086,474.917206 
	C550.426086,477.279846 550.426086,479.663513 550.426086,482.009888 
	C540.016357,483.799164 533.983826,478.803619 533.983643,468.621979 
	C533.983582,463.796783 533.986694,458.971588 534.010986,453.723389 
z"/>
<path fill="#3F2A11" opacity="1.000000" stroke="none" 
	d="
M190.955231,469.007965 
	C191.442886,473.242798 191.930527,477.477661 192.472672,482.185913 
	C188.053406,482.185913 184.346603,482.185913 179.838669,482.185913 
	C182.644821,467.930603 171.893143,458.019348 167.903366,445.230133 
	C171.216614,445.230133 174.177353,445.001984 177.071228,445.342346 
	C178.230301,445.478638 179.637207,446.643524 180.248108,447.725891 
	C182.206985,451.196381 183.846603,454.847076 185.853348,459.065094 
	C187.716599,462.803955 189.335907,465.905975 190.955231,469.007965 
z"/>
<path fill="#3D280F" opacity="1.000000" stroke="none" 
	d="
M587.270020,482.712433 
	C583.654663,482.712433 580.039368,482.712433 576.127319,482.712433 
	C576.127319,470.037170 576.127319,457.884766 576.127319,445.247192 
	C579.728271,445.247192 583.165833,445.247192 587.148682,445.662720 
	C587.552673,458.289612 587.411316,470.501038 587.270020,482.712433 
z"/>
<path fill="#3D280F" opacity="1.000000" stroke="none" 
	d="
M38.270065,482.712433 
	C34.654724,482.712433 31.039379,482.712433 27.127283,482.712433 
	C27.127283,470.037109 27.127283,457.884735 27.127283,445.247192 
	C30.728245,445.247192 34.165802,445.247192 38.148663,445.662720 
	C38.552666,458.289612 38.411366,470.501038 38.270065,482.712433 
z"/>
<path fill="#3D280F" opacity="1.000000" stroke="none" 
	d="
M147.857391,480.501770 
	C144.068619,481.711029 140.292419,482.468109 136.244888,483.279572 
	C136.015839,481.368958 135.839828,480.578766 135.838577,479.788300 
	C135.820679,468.479095 135.826340,457.169830 135.826340,445.549011 
	C139.854584,445.549011 143.576508,445.549011 147.869934,445.549011 
	C147.869934,457.172241 147.869934,468.610870 147.857391,480.501770 
z"/>
<path fill="#3D280F" opacity="1.000000" stroke="none" 
	d="
M506.090546,481.326355 
	C501.522583,483.019623 494.340179,478.008057 494.179871,473.205261 
	C493.974457,467.050842 494.002716,460.880890 494.172913,454.724304 
	C494.294098,450.340790 500.895325,445.234253 506.161194,445.588196 
	C506.161194,457.331512 506.161194,469.116455 506.090546,481.326355 
z"/>
<path fill="#3F2A11" opacity="1.000000" stroke="none" 
	d="
M66.658859,480.197418 
	C70.220184,470.302429 73.781502,460.407471 77.916283,450.237793 
	C78.705429,449.943695 78.921112,449.924225 79.136795,449.904785 
	C79.136795,449.904785 79.047371,449.955048 79.044113,450.255920 
	C79.647522,451.687897 80.254181,452.819031 80.873466,454.348145 
	C83.314491,459.760376 83.444443,464.730194 81.111946,469.894073 
	C79.973991,472.413330 79.512291,475.238037 78.744492,477.924500 
	C77.207573,484.743866 71.772911,482.135498 67.215233,481.874725 
	C66.784332,480.872864 66.721596,480.535156 66.658859,480.197418 
z"/>
<path fill="#F7F7F6" opacity="1.000000" stroke="none" 
	d="
M587.843445,482.784485 
	C587.411316,470.501038 587.552673,458.289612 587.576172,445.634827 
	C588.140381,445.161926 588.822510,445.132446 590.015686,445.144623 
	C590.368286,447.298706 590.209778,449.411133 590.007446,452.108459 
	C593.103699,452.108459 595.814514,452.108459 598.910034,452.108459 
	C598.910034,459.998810 598.910034,467.334686 598.910034,475.145416 
	C596.184021,475.338135 593.320496,475.540558 590.377686,475.748596 
	C590.377686,478.025238 590.377686,479.985779 590.549316,482.333923 
	C589.952942,482.766541 589.184875,482.811523 587.843445,482.784485 
z"/>
<path fill="#F7F7F6" opacity="1.000000" stroke="none" 
	d="
M38.843452,482.784485 
	C38.411366,470.501038 38.552666,458.289612 38.576103,445.634827 
	C39.140335,445.161957 39.822430,445.132477 41.015621,445.144653 
	C41.368488,447.295685 41.210258,449.405060 41.007469,452.108459 
	C44.101936,452.108459 46.809933,452.108459 49.910027,452.108459 
	C49.910027,459.998749 49.910027,467.334625 49.910027,475.145477 
	C47.188957,475.337830 44.319595,475.540680 41.377602,475.748657 
	C41.377602,478.025146 41.377602,479.985718 41.549198,482.333862 
	C40.952808,482.766510 40.184822,482.811523 38.843452,482.784485 
z"/>
<path fill="#3F2B12" opacity="1.000000" stroke="none" 
	d="
M524.492676,448.438934 
	C529.124451,452.919769 529.124451,452.919769 528.327271,459.908020 
	C524.632019,459.908020 520.900818,459.908020 516.897522,459.908020 
	C516.745300,457.526733 516.600891,455.267578 516.432129,452.627106 
	C513.832275,452.466980 511.418640,452.318329 508.739563,452.153320 
	C508.739563,449.884888 508.739563,447.822083 508.739563,445.155457 
	C514.131897,446.075287 519.845886,442.917877 524.492676,448.438934 
z"/>
<path fill="#48341C" opacity="1.000000" stroke="none" 
	d="
M509.001556,482.142548 
	C508.603027,479.900757 508.507629,477.946533 508.396515,475.670044 
	C511.237823,475.471283 513.656616,475.302094 516.269226,475.119354 
	C516.523987,473.379333 516.754883,471.802185 517.009094,470.065826 
	C520.838928,470.065826 524.443359,470.065826 528.019287,470.065826 
	C529.312744,475.512817 524.255615,482.389954 518.776001,482.598755 
	C515.625610,482.718781 512.462219,482.497681 509.001556,482.142548 
z"/>
<path fill="#3F2A11" opacity="1.000000" stroke="none" 
	d="
M475.136505,455.531128 
	C471.346558,456.547485 467.592896,457.117035 463.603516,457.722321 
	C463.248840,455.510529 463.023163,454.103088 462.778625,452.578156 
	C460.831329,452.435669 459.043762,452.304840 456.974854,452.153442 
	C456.974854,449.977478 456.974854,447.903931 456.974854,445.526978 
	C462.944153,445.526978 468.821777,445.526978 475.172791,445.526978 
	C475.172791,448.836121 475.172791,451.960236 475.136505,455.531128 
z"/>
<path fill="#5F4E39" opacity="1.000000" stroke="none" 
	d="
M187.793427,523.128418 
	C188.484970,519.204895 189.123886,515.666504 190.072601,510.412384 
	C191.692566,509.265839 195.469910,508.253143 198.195175,511.458893 
	C201.001587,514.760193 199.030136,518.281494 195.879898,521.213013 
	C197.868927,524.120728 199.846390,527.011536 201.823853,529.902344 
	C201.359970,530.357910 200.896088,530.813416 200.432220,531.268921 
	C197.692429,528.696472 194.952652,526.124084 192.049576,523.398315 
	C191.277267,524.873718 190.511993,526.335693 189.746719,527.797668 
	C189.321869,527.773743 188.897018,527.749756 188.472183,527.725769 
	C188.228378,526.321716 187.984589,524.917603 187.793427,523.128418 
z"/>
<path fill="#3F2B12" opacity="1.000000" stroke="none" 
	d="
M187.922989,459.011810 
	C189.485870,454.823303 190.119598,449.773926 192.929611,446.740845 
	C194.889526,444.625366 199.831772,445.272919 205.054199,444.424225 
	C200.962708,452.633362 197.551132,459.478271 193.699432,466.780548 
	C191.480545,464.495850 189.701767,461.753845 187.922989,459.011810 
z"/>
<path fill="#443018" opacity="1.000000" stroke="none" 
	d="
M156.146225,474.221252 
	C157.085175,472.743500 157.815872,470.957184 158.822693,470.784943 
	C161.366501,470.349792 164.034500,470.640686 166.924561,470.640686 
	C166.924561,474.664948 166.924561,478.382202 166.924561,482.359741 
	C161.424820,482.359741 156.061630,482.359741 150.398926,482.359741 
	C150.398926,480.101288 150.398926,478.047699 150.398926,475.953918 
	C152.347931,475.504456 154.205826,475.075989 156.146225,474.221252 
z"/>
<path fill="#48341C" opacity="1.000000" stroke="none" 
	d="
M647.639648,471.619263 
	C649.024597,472.573822 650.197693,473.398407 650.831299,474.526093 
	C651.255554,475.281219 650.914429,476.466675 650.914734,477.459564 
	C650.915283,478.936951 650.914856,480.414368 650.914856,482.261230 
	C644.608521,482.261230 638.584534,482.261230 632.253540,482.261230 
	C632.253540,480.119812 632.253540,478.055267 632.253540,475.798065 
	C635.053040,475.059235 638.669189,476.268188 640.103088,471.980865 
	C640.377380,471.160736 644.728149,471.703979 647.639648,471.619263 
z"/>
<path fill="#5A4833" opacity="1.000000" stroke="none" 
	d="
M389.241028,519.056641 
	C390.421722,516.172913 391.128662,513.486816 392.397064,511.098938 
	C392.953186,510.051880 394.684662,509.016174 395.827515,509.073334 
	C396.882507,509.126099 398.279083,510.448761 398.808746,511.555115 
	C401.666870,517.524963 401.084290,523.846313 399.501465,530.473083 
	C398.506927,527.741882 397.512390,525.010681 396.048920,520.991638 
	C393.379120,523.064819 391.067139,524.860168 388.590515,526.783325 
	C386.448761,525.264893 386.448761,525.264893 389.241028,519.056641 
z"/>
<path fill="#48341C" opacity="1.000000" stroke="none" 
	d="
M367.988647,474.213989 
	C369.079254,473.066467 370.035065,471.834961 371.111267,471.718750 
	C373.868530,471.421143 376.679260,471.619385 379.755524,471.619385 
	C379.755524,475.392334 379.755524,478.754395 379.755524,482.327972 
	C378.566864,482.444122 377.604736,482.614105 376.641693,482.619476 
	C371.698944,482.647034 366.755951,482.632233 361.452545,482.632233 
	C361.452545,480.206238 361.452545,478.155579 361.452545,475.900299 
	C363.533691,475.493378 365.721222,475.065643 367.988647,474.213989 
z"/>
<path fill="#48341C" opacity="1.000000" stroke="none" 
	d="
M318.205475,475.268829 
	C320.939056,475.344360 323.222626,475.344360 325.773621,475.344360 
	C325.773621,477.930115 325.773621,479.999268 325.773621,482.043945 
	C312.772247,484.472443 304.487976,480.195099 305.291077,471.336700 
	C308.845306,471.336700 312.426788,471.336700 316.191162,471.336700 
	C316.702240,472.596680 317.228851,473.894989 318.205475,475.268829 
z"/>
<path fill="#55432D" opacity="1.000000" stroke="none" 
	d="
M567.168823,520.378906 
	C566.082886,523.368652 565.059021,525.960693 563.549011,529.783508 
	C561.416016,524.453308 559.914856,520.701965 558.413696,516.950623 
	C558.092407,516.932495 557.771118,516.914368 557.449829,516.896240 
	C556.667236,520.155334 555.884583,523.414490 555.101990,526.673584 
	C550.996094,520.871704 554.523682,515.747253 554.968933,510.245819 
	C561.523438,510.144226 560.079529,516.269958 563.339111,519.390869 
	C564.352722,515.973633 565.231934,513.009277 566.278198,509.481964 
	C570.695068,513.282349 567.028809,516.737427 567.168823,520.378906 
z"/>
<path fill="#443018" opacity="1.000000" stroke="none" 
	d="
M325.040161,445.207214 
	C330.762970,444.288239 334.939056,446.009430 337.711060,450.573273 
	C338.619293,452.068634 338.938721,453.921692 339.944183,456.807129 
	C334.798523,454.885315 329.367004,459.266785 327.081146,452.246399 
	C324.386139,452.246399 321.593842,452.246399 318.537109,452.246399 
	C318.537109,449.891205 318.537109,447.836060 318.537109,445.207214 
	C320.698730,445.207214 322.638184,445.207214 325.040161,445.207214 
z"/>
<path fill="#443018" opacity="1.000000" stroke="none" 
	d="
M647.653687,445.208557 
	C649.044250,446.203247 650.559814,447.085480 650.773376,448.214111 
	C651.195740,450.446136 650.898071,452.814453 650.898071,456.004852 
	C646.607971,454.775513 641.929871,458.763733 638.645081,452.864685 
	C638.052734,451.800903 634.637817,452.308777 632.251587,452.062775 
	C632.251587,449.936707 632.251587,447.870392 632.251587,445.207489 
	C637.309021,445.207489 642.249512,445.207489 647.653687,445.208557 
z"/>
<path fill="#5F4E39" opacity="1.000000" stroke="none" 
	d="
M213.073334,512.593018 
	C215.507095,510.446014 216.730881,510.630768 216.702713,513.051941 
	C216.641571,518.308289 216.086685,523.558899 215.788193,528.000427 
	C212.774048,527.756042 210.540161,527.698547 208.353256,527.347900 
	C207.180161,527.159790 205.683624,526.783386 205.030472,525.947144 
	C202.451218,522.645081 203.624191,513.602356 208.023636,509.305817 
	C207.616867,514.486633 207.303131,518.482544 206.938507,523.126526 
	C212.078049,520.931030 213.474457,517.484985 213.073334,512.593018 
z"/>
<path fill="#443018" opacity="1.000000" stroke="none" 
	d="
M361.122742,447.185486 
	C362.034698,446.237091 362.917145,445.304993 363.824921,445.279663 
	C368.960968,445.136414 374.103088,445.210480 379.635986,445.210480 
	C379.635986,448.736755 379.635986,451.956573 379.635986,455.951172 
	C375.725677,454.699554 370.970337,458.845490 367.748077,452.827332 
	C367.189148,451.783447 363.725800,452.294647 361.311188,452.058990 
	C361.239563,450.518158 361.172241,449.069336 361.122742,447.185486 
z"/>
<path fill="#5F4E39" opacity="1.000000" stroke="none" 
	d="
M171.022568,511.630219 
	C168.232300,513.008240 165.442047,514.386292 163.280655,515.453735 
	C165.138306,518.319641 168.425308,521.270203 167.887085,523.088257 
	C167.188126,525.449158 163.618179,527.269348 160.919144,528.558472 
	C159.994598,529.000061 157.970886,527.140381 155.728867,525.949402 
	C159.622940,524.408142 162.236771,523.373596 164.850601,522.339050 
	C164.814972,521.865662 164.779343,521.392334 164.743713,520.918945 
	C163.283569,520.387024 161.824493,519.852173 160.363068,519.323730 
	C156.482666,517.920776 156.027756,515.618652 159.066528,512.751038 
	C163.219543,508.831757 165.338516,508.745514 170.678986,512.039246 
	C171.071060,511.784271 171.022568,511.630219 171.022568,511.630219 
z"/>
<path fill="#55432D" opacity="1.000000" stroke="none" 
	d="
M122.146523,513.117188 
	C124.335739,509.753357 127.552025,509.800781 130.062790,510.977295 
	C131.368210,511.588989 132.093582,514.614563 132.093842,516.549805 
	C132.094193,519.207520 131.782959,522.237061 130.475494,524.435242 
	C128.556244,527.661926 125.271828,529.013611 121.518402,526.877441 
	C118.315002,525.054321 117.185249,520.728760 119.065636,517.408325 
	C119.871628,515.985046 120.940880,514.710876 122.146523,513.117188 
M128.753189,520.858398 
	C129.282471,518.528931 129.811752,516.199463 130.714523,512.226196 
	C127.350021,513.601685 124.588356,513.868103 123.936096,515.181824 
	C122.683228,517.705139 122.626236,520.822205 122.073196,523.692993 
	C124.081421,522.911011 126.089645,522.129028 128.753189,520.858398 
z"/>
<path fill="#E1DEDA" opacity="1.000000" stroke="none" 
	d="
M338.728485,510.173798 
	C343.955994,511.686157 342.408905,516.379333 341.678619,519.113098 
	C340.810242,522.363770 337.663757,525.005920 335.173462,527.561462 
	C334.835205,526.889038 334.873749,526.293640 334.813965,526.283569 
	C329.123688,525.327576 328.596893,521.778992 330.437286,516.930664 
	C333.301758,515.375854 335.911255,514.040833 339.101044,512.408936 
	C339.095734,512.377014 338.912109,511.275421 338.728485,510.173798 
z"/>
<path fill="#E1DEDA" opacity="1.000000" stroke="none" 
	d="
M262.772095,526.051147 
	C259.048920,522.784180 258.811096,519.776123 262.525269,516.350342 
	C264.581848,516.030579 266.067413,515.344238 267.620728,514.889282 
	C269.560577,514.321045 271.556213,513.943237 274.101624,513.349243 
	C274.060516,513.043030 273.870422,511.626526 273.680298,510.210022 
	C277.794525,512.262695 278.375793,517.732788 274.588074,522.562012 
	C273.162964,516.861938 271.540253,521.588196 270.314941,522.098999 
	C268.854858,522.707703 267.362335,524.406128 266.173767,524.170471 
	C264.983032,523.934326 264.149567,521.896301 263.096466,520.568604 
	C262.987488,522.410522 262.879791,524.230835 262.772095,526.051147 
z"/>
<path fill="#655441" opacity="1.000000" stroke="none" 
	d="
M240.483612,516.882629 
	C241.811295,511.499603 236.195099,514.229126 234.982483,510.839600 
	C239.955856,508.733551 245.003601,509.407074 250.337173,509.953796 
	C240.401291,513.780029 245.315659,523.558716 241.371918,529.575500 
	C238.901520,528.349365 238.901520,528.349365 240.483612,516.882629 
z"/>
<path fill="#655441" opacity="1.000000" stroke="none" 
	d="
M113.232712,521.989990 
	C111.244392,524.134949 109.405113,526.472595 106.998299,527.655396 
	C105.971397,528.160095 102.442703,526.409973 102.324364,525.414246 
	C101.912415,521.948120 101.484398,517.869141 102.921173,514.932556 
	C105.507637,509.646027 109.765472,509.054413 113.655983,512.256409 
	C111.316719,513.479065 108.382462,514.199524 106.806664,516.066528 
	C105.251587,517.908997 105.070786,520.911438 104.287086,523.404968 
	C104.721230,523.715332 105.155373,524.025696 105.589516,524.336121 
	C108.110344,523.462463 110.631172,522.588867 113.232712,521.989990 
z"/>
<path fill="#655441" opacity="1.000000" stroke="none" 
	d="
M223.489929,519.323486 
	C224.002670,524.605713 224.002670,524.605713 231.966736,521.396790 
	C231.857361,525.645020 229.074387,527.327881 225.746719,527.754639 
	C222.233124,528.205261 220.428284,526.064087 220.001434,522.506714 
	C219.376282,517.296509 221.522476,512.575623 226.326660,510.754211 
	C228.067291,510.094299 230.383926,510.953583 232.322159,511.110352 
	C229.036804,514.050049 226.320587,516.480469 223.489929,519.323486 
z"/>
<path fill="#655441" opacity="1.000000" stroke="none" 
	d="
M374.425598,513.441162 
	C379.615448,509.011139 380.392670,508.954193 383.479736,511.923706 
	C380.944489,513.848938 377.971985,515.498413 375.911499,517.922913 
	C374.854187,519.166992 375.425598,521.795288 375.164215,524.974731 
	C378.640106,523.437012 380.905212,522.434937 384.386841,520.894714 
	C382.732208,525.374939 380.628052,527.712219 376.787537,527.771973 
	C372.658264,527.836365 371.334869,524.825806 371.693695,521.419800 
	C371.971252,518.785217 373.292633,516.260620 374.425598,513.441162 
z"/>
<path fill="#655441" opacity="1.000000" stroke="none" 
	d="
M171.341415,511.956421 
	C171.022568,511.630219 171.071060,511.784271 171.075043,511.825653 
	C172.351242,511.122375 173.580444,509.841797 174.903900,509.735565 
	C178.583252,509.440277 182.301773,509.633087 186.333847,509.949310 
	C176.603592,513.771118 181.119339,523.530396 176.096115,529.965454 
	C176.014862,527.465088 175.779327,524.957642 175.893539,522.466248 
	C176.020737,519.691284 176.466141,516.930908 176.803970,513.885254 
	C174.993027,513.321045 173.326645,512.801819 171.341415,511.956421 
z"/>
<path fill="#655441" opacity="1.000000" stroke="none" 
	d="
M445.724731,510.135193 
	C447.029053,510.786926 447.961212,511.385773 448.467773,511.711212 
	C445.687042,513.894531 442.703247,515.698059 440.516083,518.198425 
	C439.529694,519.326050 440.130768,521.842224 439.940063,524.860229 
	C443.330444,523.429138 445.714233,522.422974 448.657104,521.180786 
	C447.700012,525.752502 445.227203,527.745483 441.404175,527.753418 
	C437.160461,527.762207 436.545319,524.506348 436.367584,521.218018 
	C436.058746,515.504150 439.278778,511.569855 445.724731,510.135193 
z"/>
<path fill="#5F4E39" opacity="1.000000" stroke="none" 
	d="
M511.486755,527.069580 
	C511.745331,522.485474 512.058960,518.217041 512.381165,513.831970 
	C510.449219,513.199524 508.583740,512.588867 506.718231,511.978180 
	C506.768097,511.324585 506.817932,510.670990 506.867767,510.017426 
	C511.801422,509.757782 516.735107,509.498138 521.668762,509.238495 
	C521.833618,509.627258 521.998474,510.016022 522.163330,510.404785 
	C511.975128,513.618774 517.063599,523.694580 512.722351,530.060242 
	C512.261169,529.015320 511.901489,528.200317 511.486755,527.069580 
z"/>
<path fill="#55432D" opacity="1.000000" stroke="none" 
	d="
M349.173584,512.018677 
	C349.209625,512.463257 349.245697,512.907898 348.889343,513.911987 
	C348.482971,515.169983 348.468964,515.868530 348.454956,516.567017 
	C348.367950,517.485962 348.280945,518.404968 347.860504,519.864319 
	C348.032898,521.261475 348.538757,522.118225 349.044617,522.974976 
	C354.908447,520.895020 353.995361,515.402344 354.825989,510.824432 
	C358.463654,512.186584 359.001160,521.307983 356.506897,527.731689 
	C353.679901,527.571167 351.244659,527.432922 348.349945,526.845520 
	C347.339050,525.919861 346.787628,525.443359 346.236176,524.966858 
	C346.013245,524.698975 345.790344,524.431091 345.661743,523.404907 
	C345.757904,520.639648 345.759766,518.632690 345.761597,516.625671 
	C345.719727,516.265869 345.677795,515.906006 346.030884,515.103027 
	C347.341797,513.779480 348.257690,512.899109 349.173584,512.018677 
z"/>
<path fill="#48341C" opacity="1.000000" stroke="none" 
	d="
M484.777588,520.102722 
	C484.480377,523.281982 484.214081,526.022644 483.979370,528.438354 
	C479.921936,527.381470 476.400330,526.464172 472.878723,525.546875 
	C472.974945,525.117371 473.071198,524.687805 473.167419,524.258301 
	C478.835083,523.656860 480.510101,521.236145 482.281097,511.087250 
	C485.358276,512.133728 485.358276,512.133728 484.777588,520.102722 
z"/>
<path fill="#E1DEDA" opacity="1.000000" stroke="none" 
	d="
M547.051086,513.363098 
	C550.618713,515.117310 551.810974,517.180908 548.105469,520.136292 
	C547.455505,520.654724 546.689819,522.000732 546.932373,522.508301 
	C548.570068,525.935547 546.027649,526.336548 543.342102,526.751404 
	C538.627319,524.641235 535.480286,522.335327 538.329163,516.914978 
	C540.781555,513.976501 543.516785,512.667480 547.051086,513.363098 
M547.958679,516.673157 
	C547.816040,516.256592 547.673401,515.840027 547.183044,514.408081 
	C547.183044,516.512390 547.183044,517.563904 547.183044,519.635864 
	C547.691711,518.232605 547.844421,517.811279 547.958679,516.673157 
z"/>
<path fill="#655441" opacity="1.000000" stroke="none" 
	d="
M288.217163,516.593201 
	C289.200470,516.475403 290.849457,516.648926 291.050812,516.188904 
	C291.881714,514.290405 292.273743,512.199768 293.193695,508.841370 
	C294.612976,510.754028 296.003510,511.849304 295.820221,512.503845 
	C294.317871,517.868774 295.029053,524.071045 289.990997,529.084045 
	C288.807098,525.876038 287.870056,523.336975 287.218628,520.177490 
	C287.741852,518.569092 287.979523,517.581177 288.217163,516.593201 
z"/>
<path fill="#655441" opacity="1.000000" stroke="none" 
	d="
M415.183838,517.581543 
	C416.107330,517.132202 417.518982,516.913147 417.860352,516.189331 
	C418.785706,514.227417 419.256866,512.051270 420.033325,509.558075 
	C423.751312,513.653076 421.301056,524.934265 416.453064,528.374084 
	C415.541321,525.864624 414.652588,523.418518 414.016266,520.378296 
	C414.573730,519.049927 414.878784,518.315735 415.183838,517.581543 
z"/>
<path fill="#5F4E39" opacity="1.000000" stroke="none" 
	d="
M497.284363,517.481812 
	C498.867981,519.315063 499.619995,518.606567 500.096741,516.626038 
	C500.620941,514.448547 501.259918,512.298584 501.905792,509.927948 
	C505.743103,512.915710 503.851410,523.606995 498.830963,528.604980 
	C497.806305,525.911438 496.854797,523.410156 496.129547,520.307312 
	C496.665344,518.964417 496.974854,518.223083 497.284363,517.481812 
z"/>
<path fill="#55432D" opacity="1.000000" stroke="none" 
	d="
M144.422638,520.890137 
	C143.695755,519.682556 142.968887,518.474976 141.727615,516.412781 
	C140.818970,520.420898 140.121887,523.495850 139.424789,526.570801 
	C138.852753,526.496948 138.280701,526.423035 137.708664,526.349121 
	C135.424774,520.900757 138.555130,515.769043 139.284683,510.268158 
	C144.666489,510.267456 144.953934,513.757141 145.079498,517.921265 
	C144.795364,519.326111 144.608994,520.108093 144.422638,520.890137 
z"/>
<path fill="#E4E4E4" opacity="1.000000" stroke="none" 
	d="
M79.097427,477.947266 
	C79.512291,475.238037 79.973991,472.413330 81.111946,469.894073 
	C83.444443,464.730194 83.314491,459.760376 81.235832,454.298035 
	C82.073273,453.845917 82.560974,453.841888 83.048683,453.837860 
	C83.082787,454.037445 83.116890,454.237030 83.158455,454.979797 
	C83.446815,455.671539 83.727722,455.820099 84.008636,455.968658 
	C84.088219,456.426697 84.167801,456.884735 84.218689,457.925720 
	C84.367653,458.860992 84.647087,458.986267 85.028305,458.884521 
	C86.530571,462.722687 88.032837,466.560852 89.875336,471.268280 
	C85.094833,470.928223 81.516640,472.240997 80.907303,477.663666 
	C80.391396,478.024414 79.920876,477.997223 79.097427,477.947266 
z"/>
<path fill="#5F4E39" opacity="1.000000" stroke="none" 
	d="
M467.839783,517.055542 
	C468.188477,522.199890 465.351868,526.902710 461.254517,527.711060 
	C457.438751,528.463745 454.943695,526.765503 453.416687,523.257996 
	C451.693817,519.300659 454.125458,516.751465 456.644653,514.387695 
	C457.042267,515.243469 457.083588,515.779114 457.129700,516.694824 
	C456.816589,519.512146 456.498657,521.949402 456.180756,524.386658 
	C456.944611,524.720215 457.708466,525.053772 458.472290,525.387268 
	C460.815796,522.921265 463.159332,520.455200 465.754120,517.946960 
	C466.616852,517.621704 467.228302,517.338623 467.839783,517.055542 
z"/>
<path fill="#5A4833" opacity="1.000000" stroke="none" 
	d="
M144.592499,521.213013 
	C144.608994,520.108093 144.795364,519.326111 145.005310,518.234253 
	C146.420639,519.666321 147.599808,520.053467 148.276230,517.400574 
	C148.881073,515.028442 149.470901,512.652466 150.090485,510.186188 
	C154.241882,512.433777 152.184952,524.047363 146.870941,528.523010 
	C146.132141,526.074829 145.447250,523.805359 144.592499,521.213013 
z"/>
<path fill="#655441" opacity="1.000000" stroke="none" 
	d="
M252.114304,526.893799 
	C252.581299,521.667419 253.129013,516.756348 253.817810,511.865021 
	C253.908463,511.221161 254.651291,510.298096 255.217133,510.195740 
	C255.791946,510.091736 257.129242,510.917084 257.093842,511.209961 
	C256.362457,517.262512 255.482727,523.297119 254.632370,529.335327 
	C254.176819,529.321106 253.721283,529.306946 253.265747,529.292725 
	C252.923492,528.600281 252.581238,527.907776 252.114304,526.893799 
z"/>
<path fill="#55432D" opacity="1.000000" stroke="none" 
	d="
M497.279510,517.113892 
	C496.974854,518.223083 496.665344,518.964417 496.022278,519.933838 
	C495.393066,518.755432 495.097412,517.348938 494.801758,515.942383 
	C494.013519,516.657410 493.225250,517.372498 492.437012,518.087524 
	C492.059967,520.874939 491.682953,523.662354 491.246735,526.887329 
	C487.734436,523.771729 488.133087,517.295959 492.229553,509.173431 
	C493.762299,511.111176 494.971313,512.639587 496.087616,514.694397 
	C496.000916,515.439514 496.073456,515.633362 496.212616,515.802307 
	C496.566620,516.116821 496.920624,516.431396 497.279510,517.113892 
z"/>
<path fill="#5A4833" opacity="1.000000" stroke="none" 
	d="
M316.340210,520.516785 
	C315.636597,523.526306 314.932953,526.535828 313.900055,530.953735 
	C312.085144,523.920166 310.651001,518.362366 309.568115,512.473877 
	C310.512939,512.121216 311.106537,512.099182 311.700134,512.077148 
	C312.235443,513.180115 312.770721,514.283020 313.717651,515.977783 
	C314.866302,517.885376 315.603271,519.201050 316.340210,520.516785 
z"/>
<path fill="#655441" opacity="1.000000" stroke="none" 
	d="
M538.038452,517.105774 
	C535.480286,522.335327 538.627319,524.641235 542.989502,526.727356 
	C539.825073,528.881287 537.134827,527.720764 535.166748,524.911987 
	C532.737610,521.445129 533.521606,518.130920 536.757263,515.312378 
	C537.465576,516.002441 537.752014,516.554077 538.038452,517.105774 
z"/>
<path fill="#786A58" opacity="1.000000" stroke="none" 
	d="
M330.182343,517.150452 
	C328.596893,521.778992 329.123688,525.327576 334.813965,526.283569 
	C334.873749,526.293640 334.835205,526.889038 334.811493,527.532104 
	C331.237793,528.294250 328.307709,527.518066 326.537598,524.029419 
	C324.771973,520.549683 325.841675,517.723816 328.678406,515.335815 
	C329.429169,516.077881 329.805756,516.614197 330.182343,517.150452 
z"/>
<path fill="#5A4833" opacity="1.000000" stroke="none" 
	d="
M288.204102,516.236572 
	C287.979523,517.581177 287.741852,518.569092 287.205994,519.794128 
	C286.664490,519.639526 286.421234,519.247925 286.095581,518.179321 
	C285.332733,517.082520 284.652283,516.662659 283.971863,516.242859 
	C283.735107,517.385742 283.498383,518.528687 283.261658,519.671570 
	C283.266174,520.260803 283.270660,520.850098 282.910828,521.882446 
	C281.664886,522.873718 280.783234,523.421997 279.901611,523.970215 
	C279.839417,523.223145 279.777252,522.476135 280.062805,521.243896 
	C280.340515,520.192017 280.270508,519.625305 280.200500,519.058655 
	C280.238220,518.584473 280.275879,518.110291 280.765747,517.236633 
	C281.230499,515.917053 281.243042,514.996887 281.255615,514.076782 
	C281.616638,512.755432 281.977661,511.434021 282.338715,510.112640 
	C282.903809,509.895996 283.468933,509.679352 284.034058,509.462708 
	C285.419739,511.601807 286.805389,513.740906 288.204102,516.236572 
z"/>
<path fill="#786A58" opacity="1.000000" stroke="none" 
	d="
M316.598511,520.302856 
	C315.603271,519.201050 314.866302,517.885376 314.007324,516.341125 
	C315.469513,514.485596 316.916626,512.683044 318.690277,511.298737 
	C319.718903,510.495941 321.272491,510.365753 322.589844,509.932861 
	C322.759033,510.412628 322.928253,510.892395 323.097443,511.372192 
	C321.017212,514.277771 318.936981,517.183350 316.598511,520.302856 
z"/>
<path fill="#5A4833" opacity="1.000000" stroke="none" 
	d="
M415.074341,517.311829 
	C414.878784,518.315735 414.573730,519.049927 413.930267,520.001343 
	C413.330780,519.773560 413.069702,519.328430 412.845764,518.225891 
	C412.335876,517.107239 411.788849,516.646118 411.241821,516.184937 
	C410.900024,516.990967 410.558228,517.797058 410.216431,518.603088 
	C410.399811,518.902161 410.432617,519.216919 409.946259,519.925293 
	C409.645782,521.180420 409.713898,522.057739 409.782043,522.934998 
	C409.744629,523.513367 409.707214,524.091736 409.074463,524.866211 
	C407.935577,525.030640 407.392029,524.998901 406.848480,524.967163 
	C406.766449,523.588257 406.684418,522.209412 407.047119,520.181641 
	C407.864166,517.107666 408.236420,514.682617 408.608704,512.257568 
	C409.282257,511.560272 409.955780,510.862976 410.629303,510.165680 
	C411.867981,511.696167 413.106689,513.226685 414.214691,515.345947 
	C414.070282,516.274597 414.189911,516.557739 414.442871,516.784119 
	C414.616852,516.870178 414.790863,516.956177 415.074341,517.311829 
z"/>
<path fill="#5A4833" opacity="1.000000" stroke="none" 
	d="
M263.094177,526.227966 
	C262.879791,524.230835 262.987488,522.410522 263.096466,520.568604 
	C264.149567,521.896301 264.983032,523.934326 266.173767,524.170471 
	C267.362335,524.406128 268.854858,522.707703 270.314941,522.098999 
	C271.540253,521.588196 273.162964,516.861938 274.238953,522.661743 
	C270.452118,528.272217 268.667542,528.820862 263.094177,526.227966 
z"/>
<path fill="#55432D" opacity="1.000000" stroke="none" 
	d="
M330.437286,516.930664 
	C329.805756,516.614197 329.429169,516.077881 328.988770,515.203430 
	C331.155853,511.714600 333.373077,508.537567 338.395264,510.147705 
	C338.912109,511.275421 339.095734,512.377014 339.101044,512.408936 
	C335.911255,514.040833 333.301758,515.375854 330.437286,516.930664 
z"/>
<path fill="#55432D" opacity="1.000000" stroke="none" 
	d="
M273.286804,510.163147 
	C273.870422,511.626526 274.060516,513.043030 274.101624,513.349243 
	C271.556213,513.943237 269.560577,514.321045 267.620728,514.889282 
	C266.067413,515.344238 264.581848,516.030579 262.888672,516.285950 
	C263.381256,515.162048 264.051361,514.366394 265.158173,513.180298 
	C266.196167,511.934875 266.797424,511.079803 267.398682,510.224701 
	C269.230194,510.188538 271.061768,510.152374 273.286804,510.163147 
z"/>
<path fill="#55432D" opacity="1.000000" stroke="none" 
	d="
M457.124908,516.314697 
	C457.083588,515.779114 457.042267,515.243469 456.995117,514.304871 
	C457.871887,512.834351 458.754547,511.766876 460.484497,510.766785 
	C462.806000,510.763702 464.280243,510.693237 465.754486,510.622803 
	C466.460449,512.525574 467.166412,514.428345 467.856079,516.693359 
	C467.228302,517.338623 466.616852,517.621704 465.630981,517.622131 
	C464.984375,512.666870 464.206177,512.205139 460.554504,514.472839 
	C459.454346,515.156067 458.270447,515.704468 457.124908,516.314697 
z"/>
<path fill="#55432D" opacity="1.000000" stroke="none" 
	d="
M538.329163,516.914978 
	C537.752014,516.554077 537.465576,516.002441 537.057983,515.163391 
	C541.907166,508.387207 544.129944,507.984985 547.341919,513.151855 
	C543.516785,512.667480 540.781555,513.976501 538.329163,516.914978 
z"/>
<path fill="#E1DEDA" opacity="1.000000" stroke="none" 
	d="
M187.614380,458.985901 
	C189.701767,461.753845 191.480545,464.495850 193.633240,467.126526 
	C193.231796,467.681274 192.456451,468.347351 191.318176,469.010681 
	C189.335907,465.905975 187.716599,462.803955 186.082489,459.343018 
	C186.480392,458.976044 186.893082,458.968018 187.614380,458.985901 
z"/>
<path fill="#3F2B12" opacity="1.000000" stroke="none" 
	d="
M83.034714,453.457825 
	C82.560974,453.841888 82.073273,453.845917 81.223198,453.900024 
	C80.254181,452.819031 79.647522,451.687897 79.061264,450.207581 
	C79.399727,449.134766 79.717796,448.411163 80.090202,447.343445 
	C81.103279,449.025452 82.062012,451.051636 83.034714,453.457825 
z"/>
<path fill="#786A58" opacity="1.000000" stroke="none" 
	d="
M349.320068,511.802185 
	C348.257690,512.899109 347.341797,513.779480 346.132935,514.848389 
	C346.323059,513.515076 346.806183,511.993378 347.289307,510.471649 
	C348.015045,510.842987 348.740784,511.214325 349.320068,511.802185 
z"/>
<path fill="#655441" opacity="1.000000" stroke="none" 
	d="
M279.761902,524.195007 
	C280.783234,523.421997 281.664886,522.873718 282.790161,522.156860 
	C282.609039,523.448486 282.184326,524.908813 281.759583,526.369080 
	C281.047119,525.719299 280.334686,525.069580 279.761902,524.195007 
z"/>
<path fill="#655441" opacity="1.000000" stroke="none" 
	d="
M408.369537,512.520508 
	C408.236420,514.682617 407.864166,517.107666 407.194397,519.785034 
	C407.308075,517.619324 407.719238,515.201355 408.369537,512.520508 
z"/>
<path fill="#786A58" opacity="1.000000" stroke="none" 
	d="
M345.512817,516.849365 
	C345.759766,518.632690 345.757904,520.639648 345.619263,523.137207 
	C345.409637,521.442810 345.336823,519.257874 345.512817,516.849365 
z"/>
<path fill="#5F4E39" opacity="1.000000" stroke="none" 
	d="
M465.511871,510.391846 
	C464.280243,510.693237 462.806000,510.763702 460.783081,510.726624 
	C461.912659,510.466370 463.590973,510.313629 465.511871,510.391846 
z"/>
<path fill="#655441" opacity="1.000000" stroke="none" 
	d="
M283.483643,519.416382 
	C283.498383,518.528687 283.735107,517.385742 283.971863,516.242859 
	C284.652283,516.662659 285.332733,517.082520 286.053406,517.833130 
	C285.297607,518.496277 284.501617,518.828674 283.483643,519.416382 
z"/>
<path fill="#655441" opacity="1.000000" stroke="none" 
	d="
M410.514832,518.287598 
	C410.558228,517.797058 410.900024,516.990967 411.241821,516.184937 
	C411.788849,516.646118 412.335876,517.107239 412.872833,517.953308 
	C412.179596,518.216187 411.496429,518.094177 410.514832,518.287598 
z"/>
<path fill="#655441" opacity="1.000000" stroke="none" 
	d="
M406.739380,525.167175 
	C407.392029,524.998901 407.935577,525.030640 408.886353,525.093506 
	C408.405823,525.205444 407.518036,525.286316 406.739380,525.167175 
z"/>
<path fill="#655441" opacity="1.000000" stroke="none" 
	d="
M409.926086,522.721130 
	C409.713898,522.057739 409.645782,521.180420 409.827209,520.138184 
	C410.074524,520.817932 410.072327,521.662598 409.926086,522.721130 
z"/>
<path fill="#786A58" opacity="1.000000" stroke="none" 
	d="
M348.839294,522.721130 
	C348.538757,522.118225 348.032898,521.261475 347.773743,520.199951 
	C348.224945,520.819153 348.429443,521.643250 348.839294,522.721130 
z"/>
<path fill="#786A58" opacity="1.000000" stroke="none" 
	d="
M311.560486,511.860718 
	C311.106537,512.099182 310.512939,512.121216 309.623566,512.110962 
	C310.025482,511.933777 310.723114,511.789032 311.560486,511.860718 
z"/>
<path fill="#655441" opacity="1.000000" stroke="none" 
	d="
M281.077332,514.330017 
	C281.243042,514.996887 281.230499,515.917053 280.969086,516.938049 
	C280.779816,516.220398 280.839417,515.401794 281.077332,514.330017 
z"/>
<path fill="#E1DEDA" opacity="1.000000" stroke="none" 
	d="
M267.026672,510.177521 
	C266.797424,511.079803 266.196167,511.934875 265.297638,512.895386 
	C265.551819,512.043945 266.103271,511.087128 267.026672,510.177521 
z"/>
<path fill="#786A58" opacity="1.000000" stroke="none" 
	d="
M346.396790,525.185303 
	C346.787628,525.443359 347.339050,525.919861 347.940918,526.674927 
	C347.513397,526.436890 347.035431,525.920349 346.396790,525.185303 
z"/>
<path fill="#655441" opacity="1.000000" stroke="none" 
	d="
M280.057373,519.217651 
	C280.270508,519.625305 280.340515,520.192017 280.187683,520.885254 
	C279.947998,520.466736 279.931122,519.921631 280.057373,519.217651 
z"/>
<path fill="#786A58" opacity="1.000000" stroke="none" 
	d="
M348.645111,516.412842 
	C348.468964,515.868530 348.482971,515.169983 348.769287,514.230774 
	C348.972870,514.746216 348.904053,515.502441 348.645111,516.412842 
z"/>
<path fill="#3F2B12" opacity="1.000000" stroke="none" 
	d="
M79.065994,449.640503 
	C78.921112,449.924225 78.705429,449.943695 78.165382,449.981171 
	C78.069847,449.545624 78.298676,449.092072 78.527504,448.638519 
	C78.683411,448.884430 78.839302,449.130310 79.065994,449.640503 
z"/>
<path fill="#5F4E39" opacity="1.000000" stroke="none" 
	d="
M496.210968,515.646118 
	C496.073456,515.633362 496.000916,515.439514 496.014862,515.063599 
	C496.187592,515.072693 496.245758,515.267212 496.210968,515.646118 
z"/>
<path fill="#655441" opacity="1.000000" stroke="none" 
	d="
M414.410980,516.554199 
	C414.189911,516.557739 414.070282,516.274597 414.094849,515.686646 
	C414.347839,515.687744 414.438965,515.982971 414.410980,516.554199 
z"/>
<path fill="#3F2B12" opacity="1.000000" stroke="none" 
	d="
M66.394974,480.451904 
	C66.721596,480.535156 66.784332,480.872864 66.880981,481.724731 
	C66.653618,481.728058 66.392349,481.217224 66.394974,480.451904 
z"/>
<path fill="#FABC2C" opacity="1.000000" stroke="none" 
	d="
M317.982910,376.001862 
	C318.065613,376.069611 318.168976,376.122864 318.272339,376.176117 
	C318.202301,376.192017 318.132263,376.207916 318.049408,376.086487 
	C318.036591,375.949188 318.003540,375.987335 317.982910,376.001862 
z"/>
<path fill="#F7F7F6" opacity="1.000000" stroke="none" 
	d="
M364.867432,219.295654 
	C365.213257,220.139511 365.532104,221.210571 365.134521,221.790237 
	C348.385986,246.209076 331.720032,270.688629 314.524231,294.789948 
	C312.941833,297.007812 307.929199,296.778320 304.509369,297.685242 
	C304.232208,297.194275 303.955078,296.703308 303.677917,296.212341 
	C304.648987,294.816528 305.621307,293.421570 306.590912,292.024750 
	C321.959076,269.884583 337.484924,247.850861 352.565979,225.516830 
	C355.708008,220.863693 358.854950,218.188416 364.867432,219.295654 
z"/>
<path fill="#F5F4F3" opacity="1.000000" stroke="none" 
	d="
M284.646820,222.881287 
	C288.905853,221.060974 292.912811,219.549561 297.711639,217.739426 
	C297.711639,221.653107 297.711639,223.913559 297.711639,226.550781 
	C295.795319,226.750549 293.706909,226.968246 291.496429,227.198669 
	C288.591919,237.083786 295.142487,248.729492 285.890259,257.444336 
	C294.985535,266.400330 288.833069,277.895630 291.478455,288.536011 
	C293.257660,288.657898 295.349976,288.801239 297.733093,288.964539 
	C297.733093,291.336548 297.733093,293.732208 297.733093,296.118439 
	C286.776917,297.020233 282.202209,293.887268 283.090576,283.664642 
	C283.377747,280.359985 283.005554,277.003021 283.166687,273.681244 
	C283.398407,268.903046 283.097260,264.608337 278.760468,261.255981 
	C275.448792,258.696045 276.826691,255.415009 279.425018,253.123642 
	C282.633179,250.294495 283.209930,246.950409 283.236969,242.911819 
	C283.281097,236.335648 283.975006,229.763824 284.646820,222.881287 
z"/>
<path fill="#F5F4F3" opacity="1.000000" stroke="none" 
	d="
M387.774841,289.225739 
	C385.099030,295.457001 381.879395,296.918945 373.206909,296.108826 
	C373.206909,293.871613 373.206909,291.609833 373.206909,289.053345 
	C375.292419,288.871765 377.359924,288.691772 379.437744,288.510864 
	C382.421417,278.207275 375.836548,266.431030 385.100281,257.449463 
	C376.040894,248.771759 382.151611,237.433792 379.599976,227.230698 
	C377.689453,227.044724 375.608154,226.842102 373.260132,226.613525 
	C373.260132,224.278656 373.260132,222.025589 373.260132,219.762802 
	C383.271118,217.691330 387.862610,221.244644 387.864319,231.092697 
	C387.864838,234.254868 388.003479,237.424576 387.832733,240.577499 
	C387.556732,245.673813 387.878784,250.314545 392.279083,254.033112 
	C394.991913,256.325714 394.719574,259.476227 391.814148,261.761383 
	C388.458130,264.400970 387.569977,267.701721 387.787720,271.833893 
	C388.085083,277.476196 387.844574,283.146851 387.774841,289.225739 
z"/>
<path fill="#3F2B12" opacity="1.000000" stroke="none" 
	d="
M84.951447,458.715088 
	C84.647087,458.986267 84.367653,458.860992 84.265800,458.272675 
	C84.565529,458.157898 84.743187,458.327576 84.951447,458.715088 
z"/>
<path fill="#3F2B12" opacity="1.000000" stroke="none" 
	d="
M83.935051,455.779236 
	C83.727722,455.820099 83.446815,455.671539 83.226128,455.275879 
	C83.533989,455.158447 83.725700,455.345459 83.935051,455.779236 
z"/>
<path fill="#E4E4E4" opacity="1.000000" stroke="none" 
	d="
M128.425537,521.102722 
	C126.089645,522.129028 124.081421,522.911011 122.073196,523.692993 
	C122.626236,520.822205 122.683228,517.705139 123.936096,515.181824 
	C124.588356,513.868103 127.350021,513.601685 130.714523,512.226196 
	C129.811752,516.199463 129.282471,518.528931 128.425537,521.102722 
z"/>
<path fill="#3F2B12" opacity="1.000000" stroke="none" 
	d="
M547.977905,517.031494 
	C547.844421,517.811279 547.691711,518.232605 547.183044,519.635864 
	C547.183044,517.563904 547.183044,516.512390 547.183044,514.408081 
	C547.673401,515.840027 547.816040,516.256592 547.977905,517.031494 
z"/>
<path fill="#E9E9EA" opacity="1.000000" stroke="none" 
	d="
M457.129700,516.694824 
	C458.270447,515.704468 459.454346,515.156067 460.554504,514.472839 
	C464.206177,512.205139 464.984375,512.666870 465.379700,517.664307 
	C463.159332,520.455200 460.815796,522.921265 458.472290,525.387268 
	C457.708466,525.053772 456.944611,524.720215 456.180756,524.386658 
	C456.498657,521.949402 456.816589,519.512146 457.129700,516.694824 
z"/>
</svg>